<svg xmlns="http://www.w3.org/2000/svg" xmlns:xlink="http://www.w3.org/1999/xlink" width="500" zoomAndPan="magnify" viewBox="0 0 375 374.999991" height="500" preserveAspectRatio="xMidYMid meet" version="1.2"><defs><clipPath id="16b2172a06"><path d="M 105 9.167969 L 339 9.167969 L 339 366 L 105 366 Z M 105 9.167969 "/></clipPath><clipPath id="29e7caea6f"><path d="M 58 9.167969 L 119 9.167969 L 119 366 L 58 366 Z M 58 9.167969 "/></clipPath><clipPath id="8ac87d7a0e"><path d="M 37.5 304 L 94 304 L 94 333 L 37.5 333 Z M 37.5 304 "/></clipPath><clipPath id="7c46e08297"><path d="M 37.5 241 L 94 241 L 94 270 L 37.5 270 Z M 37.5 241 "/></clipPath><clipPath id="db0c2749c2"><path d="M 37.5 178 L 94 178 L 94 207 L 37.5 207 Z M 37.5 178 "/></clipPath><clipPath id="563ea7f6b3"><path d="M 37.5 115 L 94 115 L 94 144 L 37.5 144 Z M 37.5 115 "/></clipPath><clipPath id="dd322c83c1"><path d="M 37.5 53 L 94 53 L 94 82 L 37.5 82 Z M 37.5 53 "/></clipPath></defs><g id="7005935848"><g clip-rule="nonzero" clip-path="url(#16b2172a06)"><path style=" stroke:none;fill-rule:nonzero;fill:#000000;fill-opacity:1;" d="M 111.964844 358.582031 L 111.964844 365.472656 L 313.292969 365.472656 C 316.824219 365.472656 320.226562 364.753906 323.308594 363.449219 C 327.9375 361.492188 331.847656 358.238281 334.621094 354.136719 C 337.398438 350.035156 339.027344 345.050781 339.023438 339.746094 L 339.023438 34.878906 C 339.023438 31.34375 338.304688 27.941406 337 24.859375 C 335.039062 20.234375 331.789062 16.316406 327.683594 13.542969 C 323.585938 10.769531 318.597656 9.144531 313.292969 9.148438 L 111.964844 9.148438 C 110.148438 9.148438 108.375 9.882812 107.089844 11.167969 C 105.808594 12.449219 105.070312 14.226562 105.070312 16.042969 L 105.070312 358.582031 C 105.070312 360.394531 105.808594 362.167969 107.089844 363.453125 C 108.375 364.738281 110.148438 365.472656 111.964844 365.472656 L 111.964844 358.582031 L 118.859375 358.582031 L 118.859375 22.933594 L 313.292969 22.933594 C 314.960938 22.933594 316.515625 23.269531 317.9375 23.871094 C 320.074219 24.773438 321.914062 26.296875 323.203125 28.203125 C 324.488281 30.121094 325.230469 32.378906 325.234375 34.878906 L 325.234375 339.746094 C 325.234375 341.414062 324.902344 342.964844 324.300781 344.390625 C 323.398438 346.523438 321.875 348.363281 319.964844 349.652344 C 318.050781 350.941406 315.789062 351.683594 313.292969 351.6875 L 111.964844 351.6875 L 111.964844 358.582031 L 118.859375 358.582031 L 111.964844 358.582031 "/></g><g clip-rule="nonzero" clip-path="url(#29e7caea6f)"><path style=" stroke:none;fill-rule:nonzero;fill:#000000;fill-opacity:1;" d="M 97.46875 67.074219 L 90.574219 67.074219 C 90.574219 67.957031 90.402344 68.765625 90.085938 69.511719 C 89.617188 70.625 88.8125 71.59375 87.808594 72.273438 C 86.800781 72.949219 85.632812 73.335938 84.3125 73.339844 C 83.425781 73.339844 82.621094 73.160156 81.875 72.851562 C 80.757812 72.375 79.789062 71.578125 79.113281 70.574219 C 78.433594 69.566406 78.050781 68.394531 78.046875 67.074219 C 78.046875 66.191406 78.21875 65.382812 78.535156 64.636719 C 79.003906 63.519531 79.808594 62.550781 80.8125 61.878906 C 81.820312 61.203125 82.988281 60.8125 84.3125 60.8125 C 85.191406 60.8125 86 60.988281 86.746094 61.300781 C 87.863281 61.769531 88.832031 62.574219 89.507812 63.578125 C 90.1875 64.585938 90.574219 65.753906 90.574219 67.074219 L 104.363281 67.074219 C 104.367188 64.324219 103.800781 61.667969 102.785156 59.265625 C 101.257812 55.660156 98.722656 52.613281 95.527344 50.449219 C 92.332031 48.292969 88.441406 47.023438 84.3125 47.027344 C 81.5625 47.023438 78.90625 47.585938 76.503906 48.605469 C 72.898438 50.132812 69.847656 52.660156 67.6875 55.859375 C 65.523438 59.050781 64.253906 62.945312 64.257812 67.074219 C 64.257812 69.824219 64.820312 72.476562 65.835938 74.878906 C 67.363281 78.488281 69.898438 81.535156 73.09375 83.699219 C 76.289062 85.859375 80.183594 87.128906 84.3125 87.125 C 87.0625 87.125 89.714844 86.5625 92.117188 85.546875 C 95.726562 84.019531 98.773438 81.484375 100.933594 78.292969 C 103.097656 75.101562 104.367188 71.203125 104.363281 67.074219 Z M 97.46875 129.863281 L 90.574219 129.863281 C 90.574219 130.742188 90.402344 131.550781 90.085938 132.296875 C 89.617188 133.414062 88.8125 134.382812 87.808594 135.058594 C 86.796875 135.734375 85.632812 136.125 84.3125 136.125 C 83.425781 136.125 82.621094 135.953125 81.875 135.636719 C 80.757812 135.167969 79.789062 134.363281 79.113281 133.359375 C 78.433594 132.351562 78.050781 131.179688 78.046875 129.863281 C 78.046875 128.976562 78.21875 128.171875 78.535156 127.425781 C 79.003906 126.3125 79.808594 125.34375 80.8125 124.664062 C 81.820312 123.988281 82.988281 123.597656 84.3125 123.59375 C 85.191406 123.597656 86 123.773438 86.746094 124.089844 C 87.863281 124.558594 88.832031 125.359375 89.507812 126.363281 C 90.1875 127.375 90.574219 128.542969 90.574219 129.863281 L 104.363281 129.863281 C 104.367188 127.113281 103.800781 124.457031 102.785156 122.054688 C 101.257812 118.449219 98.722656 115.398438 95.527344 113.238281 C 92.332031 111.078125 88.441406 109.808594 84.3125 109.808594 C 81.5625 109.808594 78.90625 110.371094 76.503906 111.390625 C 72.894531 112.917969 69.847656 115.449219 67.6875 118.644531 C 65.523438 121.835938 64.253906 125.734375 64.257812 129.863281 C 64.257812 132.613281 64.820312 135.265625 65.835938 137.667969 C 67.363281 141.273438 69.898438 144.320312 73.09375 146.484375 C 76.289062 148.644531 80.183594 149.914062 84.3125 149.910156 C 87.0625 149.914062 89.71875 149.351562 92.117188 148.332031 C 95.726562 146.808594 98.773438 144.277344 100.933594 141.078125 C 103.097656 137.886719 104.367188 133.988281 104.363281 129.863281 Z M 97.46875 192.648438 L 90.574219 192.648438 C 90.574219 193.53125 90.402344 194.335938 90.085938 195.082031 C 89.617188 196.199219 88.8125 197.171875 87.808594 197.847656 C 86.796875 198.527344 85.632812 198.910156 84.3125 198.914062 C 83.425781 198.914062 82.621094 198.738281 81.875 198.425781 C 80.757812 197.953125 79.789062 197.152344 79.113281 196.144531 C 78.433594 195.136719 78.050781 193.972656 78.046875 192.648438 C 78.046875 191.761719 78.21875 190.960938 78.535156 190.214844 C 79.003906 189.097656 79.808594 188.128906 80.8125 187.449219 C 81.820312 186.773438 82.988281 186.390625 84.3125 186.386719 C 85.191406 186.386719 86 186.5625 86.746094 186.875 C 87.863281 187.34375 88.832031 188.148438 89.507812 189.152344 C 90.1875 190.160156 90.574219 191.328125 90.574219 192.648438 L 104.363281 192.648438 C 104.367188 189.898438 103.800781 187.242188 102.785156 184.839844 C 101.257812 181.234375 98.722656 178.1875 95.527344 176.027344 C 92.332031 173.863281 88.441406 172.59375 84.3125 172.597656 C 81.5625 172.597656 78.90625 173.160156 76.503906 174.175781 C 72.898438 175.703125 69.847656 178.234375 67.6875 181.429688 C 65.523438 184.625 64.253906 188.519531 64.257812 192.648438 C 64.257812 195.398438 64.820312 198.050781 65.835938 200.457031 C 67.363281 204.0625 69.898438 207.113281 73.09375 209.273438 C 76.289062 211.433594 80.183594 212.703125 84.3125 212.699219 C 87.0625 212.699219 89.71875 212.140625 92.117188 211.121094 C 95.726562 209.597656 98.773438 207.0625 100.933594 203.863281 C 103.097656 200.671875 104.367188 196.78125 104.363281 192.648438 Z M 97.46875 255.433594 L 90.574219 255.433594 C 90.574219 256.320312 90.402344 257.125 90.085938 257.871094 C 89.617188 258.988281 88.8125 259.957031 87.808594 260.636719 C 86.800781 261.3125 85.632812 261.695312 84.3125 261.699219 C 83.425781 261.699219 82.621094 261.523438 81.875 261.210938 C 80.757812 260.738281 79.789062 259.9375 79.113281 258.933594 C 78.433594 257.925781 78.050781 256.757812 78.046875 255.433594 C 78.046875 254.554688 78.21875 253.746094 78.535156 253 C 79.003906 251.882812 79.808594 250.914062 80.8125 250.238281 C 81.820312 249.558594 82.988281 249.175781 84.3125 249.171875 C 85.191406 249.171875 86 249.347656 86.746094 249.660156 C 87.863281 250.128906 88.832031 250.9375 89.507812 251.941406 C 90.1875 252.949219 90.574219 254.113281 90.574219 255.433594 L 104.363281 255.433594 C 104.367188 252.683594 103.800781 250.03125 102.785156 247.628906 C 101.257812 244.019531 98.722656 240.972656 95.527344 238.8125 C 92.332031 236.652344 88.441406 235.382812 84.3125 235.386719 C 81.5625 235.386719 78.90625 235.945312 76.503906 236.960938 C 72.894531 238.488281 69.847656 241.023438 67.6875 244.222656 C 65.523438 247.414062 64.253906 251.308594 64.257812 255.433594 C 64.257812 258.183594 64.820312 260.84375 65.835938 263.242188 C 67.363281 266.851562 69.898438 269.898438 73.09375 272.058594 C 76.289062 274.222656 80.183594 275.492188 84.3125 275.488281 C 87.0625 275.488281 89.714844 274.925781 92.117188 273.910156 C 95.726562 272.382812 98.773438 269.847656 100.933594 266.65625 C 103.097656 263.460938 104.367188 259.566406 104.363281 255.433594 Z M 97.46875 318.21875 L 90.574219 318.21875 C 90.574219 319.105469 90.402344 319.914062 90.085938 320.660156 C 89.617188 321.773438 88.8125 322.742188 87.808594 323.421875 C 86.796875 324.097656 85.632812 324.488281 84.3125 324.488281 C 83.425781 324.488281 82.621094 324.3125 81.875 324 C 80.757812 323.527344 79.789062 322.726562 79.113281 321.722656 C 78.433594 320.714844 78.050781 319.542969 78.046875 318.21875 C 78.046875 317.339844 78.21875 316.53125 78.535156 315.789062 C 79.003906 314.671875 79.808594 313.699219 80.8125 313.027344 C 81.820312 312.351562 82.988281 311.960938 84.3125 311.960938 C 85.191406 311.960938 86 312.136719 86.746094 312.445312 C 87.863281 312.917969 88.832031 313.722656 89.507812 314.726562 C 90.1875 315.734375 90.574219 316.90625 90.574219 318.21875 L 104.363281 318.21875 C 104.367188 315.472656 103.800781 312.816406 102.785156 310.414062 C 101.257812 306.808594 98.722656 303.761719 95.527344 301.601562 C 92.332031 299.441406 88.441406 298.171875 84.3125 298.175781 C 81.5625 298.171875 78.90625 298.734375 76.503906 299.753906 C 72.894531 301.28125 69.847656 303.808594 67.6875 307.007812 C 65.523438 310.199219 64.253906 314.09375 64.257812 318.21875 C 64.257812 320.972656 64.820312 323.625 65.835938 326.027344 C 67.363281 329.636719 69.898438 332.683594 73.09375 334.847656 C 76.289062 337.007812 80.183594 338.277344 84.3125 338.273438 C 87.0625 338.277344 89.71875 337.714844 92.117188 336.695312 C 95.726562 335.167969 98.773438 332.632812 100.933594 329.441406 C 103.097656 326.25 104.367188 322.351562 104.363281 318.21875 Z M 65.628906 34.878906 L 58.734375 34.878906 L 58.734375 339.746094 C 58.734375 343.277344 59.457031 346.679688 60.761719 349.761719 C 62.722656 354.386719 65.976562 358.304688 70.074219 361.078125 C 74.175781 363.851562 79.160156 365.476562 84.464844 365.472656 L 111.964844 365.472656 C 113.777344 365.472656 115.554688 364.738281 116.835938 363.453125 C 118.121094 362.167969 118.859375 360.394531 118.859375 358.582031 L 118.859375 16.042969 C 118.859375 14.226562 118.121094 12.449219 116.839844 11.167969 C 115.554688 9.882812 113.777344 9.148438 111.964844 9.148438 L 84.464844 9.148438 C 80.933594 9.148438 77.53125 9.867188 74.449219 11.171875 C 69.824219 13.128906 65.910156 16.382812 63.136719 20.484375 C 60.363281 24.585938 58.734375 29.570312 58.734375 34.878906 L 72.523438 34.878906 C 72.527344 33.210938 72.855469 31.65625 73.460938 30.230469 C 74.359375 28.097656 75.882812 26.257812 77.796875 24.96875 C 79.707031 23.679688 81.96875 22.9375 84.464844 22.933594 L 105.070312 22.933594 L 105.070312 351.6875 L 84.464844 351.6875 C 82.800781 351.6875 81.246094 351.351562 79.820312 350.753906 C 77.683594 349.847656 75.847656 348.324219 74.5625 346.417969 C 73.273438 344.5 72.527344 342.242188 72.523438 339.746094 L 72.523438 34.878906 L 65.628906 34.878906 "/></g><g clip-rule="nonzero" clip-path="url(#8ac87d7a0e)"><path style=" stroke:none;fill-rule:nonzero;fill:#000000;fill-opacity:1;" d="M 80.496094 311.15625 L 80.496094 318.050781 L 80.496094 316.972656 L 80.035156 317.953125 C 80.144531 318.007812 80.335938 318.054688 80.496094 318.050781 L 80.496094 316.972656 L 80.035156 317.953125 L 80.296875 317.398438 L 79.878906 317.851562 L 80.035156 317.953125 L 80.296875 317.398438 L 79.878906 317.851562 L 80 317.71875 L 79.867188 317.839844 L 79.878906 317.851562 L 80 317.71875 L 79.867188 317.839844 L 79.878906 317.859375 C 79.902344 317.90625 79.957031 318.023438 79.957031 318.21875 C 79.957031 318.359375 79.933594 318.453125 79.90625 318.519531 L 79.867188 318.605469 L 79.871094 318.609375 L 79.867188 318.605469 L 79.871094 318.609375 L 79.867188 318.605469 L 80.265625 318.96875 L 80.042969 318.488281 C 79.925781 318.542969 79.875 318.59375 79.867188 318.605469 L 80.265625 318.96875 L 80.042969 318.488281 L 80.492188 319.46875 L 80.496094 318.394531 C 80.339844 318.390625 80.152344 318.4375 80.042969 318.488281 L 80.492188 319.46875 L 80.496094 318.394531 L 50.824219 318.394531 L 50.824219 319.464844 L 51.285156 318.492188 C 51.171875 318.441406 50.984375 318.390625 50.824219 318.394531 L 50.824219 319.464844 L 51.285156 318.492188 L 51.019531 319.054688 L 51.441406 318.59375 L 51.285156 318.492188 L 51.019531 319.054688 L 51.441406 318.59375 L 51.316406 318.730469 L 51.457031 318.609375 L 51.441406 318.59375 L 51.316406 318.730469 L 51.457031 318.609375 L 51.445312 318.589844 C 51.414062 318.542969 51.363281 318.425781 51.363281 318.21875 C 51.363281 318.085938 51.386719 317.988281 51.410156 317.925781 L 51.457031 317.839844 L 51.445312 317.832031 L 51.453125 317.839844 L 51.457031 317.839844 L 51.445312 317.832031 L 51.453125 317.839844 L 51.054688 317.46875 L 51.28125 317.953125 C 51.394531 317.902344 51.445312 317.851562 51.453125 317.839844 L 51.054688 317.46875 L 51.28125 317.953125 L 50.824219 316.972656 L 50.824219 318.050781 C 50.980469 318.054688 51.164062 318.007812 51.28125 317.953125 L 50.824219 316.972656 L 50.824219 318.050781 L 80.496094 318.050781 L 80.496094 304.265625 L 50.824219 304.265625 C 48.90625 304.265625 47.050781 304.707031 45.417969 305.476562 C 42.960938 306.632812 41.007812 308.488281 39.664062 310.691406 C 38.320312 312.898438 37.574219 315.5 37.574219 318.21875 C 37.578125 321.855469 38.894531 325.257812 41.207031 327.828125 C 42.363281 329.113281 43.78125 330.199219 45.417969 330.96875 C 47.050781 331.742188 48.910156 332.183594 50.824219 332.179688 L 80.496094 332.179688 C 82.410156 332.183594 84.265625 331.742188 85.902344 330.96875 C 88.359375 329.808594 90.3125 327.960938 91.65625 325.753906 C 93 323.542969 93.746094 320.949219 93.746094 318.21875 C 93.742188 314.589844 92.425781 311.1875 90.113281 308.617188 C 88.957031 307.332031 87.535156 306.246094 85.902344 305.476562 C 84.269531 304.707031 82.410156 304.265625 80.496094 304.265625 L 80.496094 311.15625 "/></g><g clip-rule="nonzero" clip-path="url(#7c46e08297)"><path style=" stroke:none;fill-rule:nonzero;fill:#000000;fill-opacity:1;" d="M 80.496094 248.371094 L 80.496094 255.265625 L 80.496094 254.1875 L 80.035156 255.164062 C 80.144531 255.21875 80.335938 255.265625 80.496094 255.265625 L 80.496094 254.1875 L 80.035156 255.164062 L 80.296875 254.605469 L 79.878906 255.066406 L 80.035156 255.164062 L 80.296875 254.605469 L 79.878906 255.066406 L 80.003906 254.925781 L 79.867188 255.050781 L 79.878906 255.066406 L 80.003906 254.925781 L 79.867188 255.050781 L 79.878906 255.070312 C 79.902344 255.117188 79.957031 255.238281 79.957031 255.433594 C 79.957031 255.574219 79.933594 255.667969 79.90625 255.730469 L 79.867188 255.820312 L 79.875 255.824219 L 79.867188 255.820312 L 79.875 255.824219 L 79.867188 255.820312 L 80.265625 256.183594 L 80.042969 255.703125 C 79.925781 255.757812 79.875 255.808594 79.867188 255.820312 L 80.265625 256.183594 L 80.042969 255.703125 L 80.492188 256.679688 L 80.496094 255.601562 C 80.339844 255.601562 80.152344 255.648438 80.042969 255.703125 L 80.492188 256.679688 L 80.496094 255.601562 L 50.824219 255.601562 L 50.824219 256.679688 L 51.285156 255.703125 C 51.171875 255.648438 50.984375 255.601562 50.824219 255.601562 L 50.824219 256.679688 L 51.285156 255.703125 L 51.019531 256.265625 L 51.441406 255.808594 L 51.285156 255.703125 L 51.019531 256.265625 L 51.441406 255.808594 L 51.316406 255.945312 L 51.457031 255.820312 L 51.441406 255.808594 L 51.316406 255.945312 L 51.457031 255.820312 L 51.445312 255.804688 C 51.414062 255.753906 51.363281 255.632812 51.363281 255.433594 C 51.363281 255.300781 51.386719 255.203125 51.410156 255.136719 L 51.457031 255.050781 L 51.453125 255.050781 L 51.453125 255.054688 L 51.457031 255.050781 L 51.453125 255.050781 L 51.453125 255.054688 L 51.054688 254.683594 L 51.28125 255.167969 C 51.394531 255.109375 51.445312 255.0625 51.453125 255.054688 L 51.054688 254.683594 L 51.28125 255.167969 L 50.824219 254.183594 L 50.824219 255.265625 C 50.980469 255.265625 51.164062 255.222656 51.28125 255.167969 L 50.824219 254.183594 L 50.824219 255.265625 L 80.496094 255.265625 L 80.496094 241.476562 L 50.824219 241.476562 C 48.90625 241.472656 47.050781 241.917969 45.417969 242.691406 C 42.960938 243.847656 41.007812 245.703125 39.664062 247.90625 C 38.320312 250.113281 37.574219 252.714844 37.574219 255.433594 C 37.578125 259.070312 38.894531 262.46875 41.207031 265.039062 C 42.363281 266.328125 43.78125 267.414062 45.417969 268.183594 C 47.050781 268.953125 48.910156 269.394531 50.824219 269.390625 L 80.496094 269.390625 C 82.410156 269.394531 84.265625 268.953125 85.902344 268.183594 C 88.359375 267.023438 90.3125 265.171875 91.65625 262.964844 C 93 260.757812 93.746094 258.160156 93.746094 255.433594 C 93.742188 251.804688 92.425781 248.402344 90.113281 245.828125 C 88.957031 244.542969 87.539062 243.460938 85.902344 242.691406 C 84.269531 241.917969 82.410156 241.472656 80.496094 241.476562 L 80.496094 248.371094 "/></g><g clip-rule="nonzero" clip-path="url(#db0c2749c2)"><path style=" stroke:none;fill-rule:nonzero;fill:#000000;fill-opacity:1;" d="M 80.496094 185.585938 L 80.496094 192.480469 L 80.496094 191.402344 L 80.035156 192.378906 C 80.144531 192.433594 80.335938 192.484375 80.496094 192.480469 L 80.496094 191.402344 L 80.035156 192.378906 L 80.296875 191.820312 L 79.878906 192.277344 L 80.035156 192.378906 L 80.296875 191.820312 L 79.878906 192.277344 L 79.996094 192.152344 L 79.867188 192.265625 L 79.878906 192.277344 L 79.996094 192.152344 L 79.867188 192.265625 L 79.878906 192.28125 C 79.902344 192.332031 79.957031 192.453125 79.957031 192.648438 C 79.957031 192.78125 79.933594 192.878906 79.90625 192.945312 L 79.867188 193.03125 L 79.875 193.035156 L 79.867188 193.03125 L 79.875 193.035156 L 79.867188 193.03125 L 80.265625 193.398438 L 80.042969 192.917969 C 79.925781 192.972656 79.875 193.019531 79.867188 193.03125 L 80.265625 193.398438 L 80.042969 192.917969 L 80.492188 193.894531 L 80.496094 192.816406 C 80.339844 192.816406 80.152344 192.863281 80.042969 192.917969 L 80.492188 193.894531 L 80.496094 192.816406 L 50.824219 192.816406 L 50.824219 193.894531 L 51.285156 192.917969 C 51.171875 192.863281 50.984375 192.816406 50.824219 192.816406 L 50.824219 193.894531 L 51.285156 192.917969 L 51.019531 193.480469 L 51.441406 193.019531 L 51.285156 192.917969 L 51.019531 193.480469 L 51.441406 193.019531 L 51.3125 193.164062 L 51.457031 193.03125 L 51.441406 193.019531 L 51.3125 193.164062 L 51.457031 193.03125 L 51.445312 193.015625 C 51.414062 192.96875 51.363281 192.847656 51.363281 192.648438 C 51.363281 192.511719 51.386719 192.417969 51.410156 192.351562 L 51.457031 192.265625 L 51.445312 192.257812 L 51.453125 192.265625 L 51.457031 192.265625 L 51.445312 192.257812 L 51.453125 192.265625 L 51.054688 191.898438 L 51.28125 192.382812 C 51.394531 192.324219 51.445312 192.273438 51.453125 192.265625 L 51.054688 191.898438 L 51.28125 192.382812 L 50.824219 191.398438 L 50.824219 192.480469 C 50.980469 192.484375 51.164062 192.4375 51.28125 192.382812 L 50.824219 191.398438 L 50.824219 192.480469 L 80.496094 192.480469 L 80.496094 178.691406 L 50.824219 178.691406 C 48.90625 178.6875 47.050781 179.128906 45.417969 179.902344 C 42.960938 181.0625 41.007812 182.914062 39.664062 185.121094 C 38.320312 187.328125 37.574219 189.925781 37.574219 192.648438 C 37.578125 196.28125 38.894531 199.679688 41.207031 202.253906 C 42.363281 203.539062 43.78125 204.625 45.417969 205.394531 C 47.050781 206.164062 48.910156 206.609375 50.824219 206.605469 L 80.496094 206.605469 C 82.410156 206.609375 84.265625 206.164062 85.902344 205.394531 C 88.359375 204.238281 90.3125 202.382812 91.65625 200.179688 C 93 197.972656 93.746094 195.371094 93.746094 192.648438 C 93.742188 189.011719 92.425781 185.617188 90.113281 183.042969 C 88.957031 181.757812 87.535156 180.671875 85.902344 179.902344 C 84.269531 179.128906 82.410156 178.6875 80.496094 178.691406 L 80.496094 185.585938 "/></g><g clip-rule="nonzero" clip-path="url(#563ea7f6b3)"><path style=" stroke:none;fill-rule:nonzero;fill:#000000;fill-opacity:1;" d="M 80.496094 122.800781 L 80.496094 129.691406 L 80.496094 128.613281 L 80.035156 129.589844 C 80.144531 129.644531 80.335938 129.691406 80.496094 129.691406 L 80.496094 128.613281 L 80.035156 129.589844 L 80.296875 129.035156 L 79.878906 129.492188 L 80.035156 129.589844 L 80.296875 129.035156 L 79.878906 129.492188 L 80.003906 129.355469 L 79.867188 129.476562 L 79.878906 129.492188 L 80.003906 129.355469 L 79.867188 129.476562 L 79.878906 129.496094 C 79.902344 129.542969 79.957031 129.660156 79.957031 129.863281 C 79.957031 129.996094 79.933594 130.09375 79.90625 130.15625 L 79.867188 130.242188 L 79.878906 130.25 L 79.867188 130.242188 L 79.878906 130.25 L 79.867188 130.242188 L 80.265625 130.613281 L 80.042969 130.128906 C 79.925781 130.179688 79.875 130.234375 79.867188 130.242188 L 80.265625 130.613281 L 80.042969 130.128906 L 80.492188 131.109375 L 80.496094 130.03125 C 80.339844 130.027344 80.152344 130.074219 80.042969 130.128906 L 80.492188 131.109375 L 80.496094 130.03125 L 50.824219 130.03125 L 50.824219 131.105469 L 51.285156 130.132812 C 51.171875 130.078125 50.984375 130.027344 50.824219 130.03125 L 50.824219 131.105469 L 51.285156 130.132812 L 51.019531 130.691406 L 51.441406 130.230469 L 51.285156 130.132812 L 51.019531 130.691406 L 51.441406 130.230469 L 51.3125 130.371094 L 51.457031 130.246094 L 51.441406 130.230469 L 51.3125 130.371094 L 51.457031 130.246094 L 51.445312 130.226562 C 51.414062 130.179688 51.363281 130.0625 51.363281 129.863281 C 51.363281 129.722656 51.386719 129.628906 51.410156 129.5625 L 51.457031 129.476562 L 51.453125 129.472656 L 51.453125 129.476562 L 51.457031 129.476562 L 51.453125 129.472656 L 51.453125 129.476562 L 51.058594 129.109375 L 51.28125 129.59375 C 51.394531 129.539062 51.445312 129.488281 51.453125 129.476562 L 51.058594 129.109375 L 51.28125 129.59375 L 50.824219 128.609375 L 50.824219 129.691406 C 50.980469 129.691406 51.164062 129.644531 51.28125 129.59375 L 50.824219 128.609375 L 50.824219 129.691406 L 80.496094 129.691406 L 80.496094 115.902344 L 50.824219 115.902344 C 48.90625 115.902344 47.050781 116.34375 45.417969 117.113281 C 42.960938 118.273438 41.007812 120.125 39.664062 122.332031 C 38.320312 124.542969 37.574219 127.136719 37.574219 129.863281 C 37.578125 133.492188 38.894531 136.894531 41.207031 139.46875 C 42.363281 140.75 43.78125 141.835938 45.417969 142.605469 C 47.050781 143.378906 48.910156 143.820312 50.824219 143.816406 L 80.496094 143.816406 C 82.410156 143.820312 84.265625 143.378906 85.902344 142.605469 C 88.359375 141.449219 90.3125 139.597656 91.65625 137.394531 C 93 135.183594 93.746094 132.585938 93.746094 129.863281 C 93.742188 126.226562 92.425781 122.828125 90.113281 120.257812 C 88.957031 118.96875 87.539062 117.882812 85.902344 117.113281 C 84.269531 116.34375 82.410156 115.902344 80.496094 115.902344 L 80.496094 122.800781 "/></g><g clip-rule="nonzero" clip-path="url(#dd322c83c1)"><path style=" stroke:none;fill-rule:nonzero;fill:#000000;fill-opacity:1;" d="M 80.496094 60.007812 L 80.496094 66.902344 L 80.496094 65.824219 L 80.035156 66.804688 C 80.144531 66.859375 80.335938 66.90625 80.496094 66.902344 L 80.496094 65.824219 L 80.035156 66.804688 L 80.296875 66.246094 L 79.878906 66.707031 L 80.035156 66.804688 L 80.296875 66.246094 L 79.878906 66.707031 L 79.996094 66.574219 L 79.867188 66.691406 L 79.878906 66.707031 L 79.996094 66.574219 L 79.867188 66.691406 L 79.878906 66.710938 C 79.902344 66.757812 79.957031 66.875 79.957031 67.074219 C 79.957031 67.210938 79.933594 67.304688 79.90625 67.371094 L 79.867188 67.457031 L 79.875 67.464844 L 79.867188 67.457031 L 79.875 67.464844 L 79.867188 67.457031 L 80.265625 67.824219 L 80.042969 67.339844 C 79.925781 67.394531 79.875 67.449219 79.867188 67.457031 L 80.265625 67.824219 L 80.042969 67.339844 L 80.492188 68.320312 L 80.496094 67.246094 C 80.339844 67.242188 80.152344 67.289062 80.042969 67.339844 L 80.492188 68.320312 L 80.496094 67.246094 L 50.824219 67.246094 L 50.824219 68.320312 L 51.285156 67.34375 C 51.171875 67.292969 50.984375 67.242188 50.824219 67.246094 L 50.824219 68.320312 L 51.285156 67.34375 L 51.019531 67.902344 L 51.441406 67.445312 L 51.285156 67.34375 L 51.019531 67.902344 L 51.441406 67.445312 L 51.316406 67.582031 L 51.457031 67.460938 L 51.441406 67.445312 L 51.316406 67.582031 L 51.457031 67.460938 L 51.445312 67.441406 C 51.414062 67.394531 51.363281 67.277344 51.363281 67.074219 C 51.363281 66.9375 51.386719 66.839844 51.410156 66.777344 L 51.457031 66.691406 L 51.445312 66.683594 L 51.453125 66.691406 L 51.457031 66.691406 L 51.445312 66.683594 L 51.453125 66.691406 L 51.054688 66.320312 L 51.28125 66.804688 C 51.394531 66.753906 51.445312 66.699219 51.453125 66.691406 L 51.054688 66.320312 L 51.28125 66.804688 L 50.824219 65.824219 L 50.824219 66.902344 C 50.980469 66.90625 51.164062 66.859375 51.28125 66.804688 L 50.824219 65.824219 L 50.824219 66.902344 L 80.496094 66.902344 L 80.496094 53.117188 L 50.824219 53.117188 C 48.90625 53.117188 47.050781 53.558594 45.417969 54.328125 C 42.960938 55.484375 41.007812 57.339844 39.664062 59.542969 C 38.320312 61.75 37.574219 64.351562 37.574219 67.074219 C 37.578125 70.707031 38.894531 74.109375 41.207031 76.679688 C 42.363281 77.964844 43.78125 79.050781 45.417969 79.820312 C 47.050781 80.59375 48.910156 81.035156 50.824219 81.03125 L 80.496094 81.03125 C 82.410156 81.035156 84.265625 80.59375 85.902344 79.820312 C 88.359375 78.660156 90.3125 76.8125 91.65625 74.605469 C 93 72.394531 93.746094 69.800781 93.746094 67.074219 C 93.742188 63.441406 92.425781 60.039062 90.113281 57.464844 C 88.957031 56.183594 87.535156 55.097656 85.902344 54.328125 C 84.269531 53.558594 82.410156 53.117188 80.496094 53.117188 L 80.496094 60.007812 "/></g><path style=" stroke:none;fill-rule:nonzero;fill:#000000;fill-opacity:1;" d="M 304.683594 122.800781 L 304.683594 115.902344 L 135.078125 115.902344 L 135.078125 66.902344 L 297.789062 66.902344 L 297.789062 122.800781 L 304.683594 122.800781 L 304.683594 115.902344 L 304.683594 122.800781 L 311.578125 122.800781 L 311.578125 60.007812 C 311.578125 58.199219 310.84375 56.421875 309.5625 55.136719 C 308.277344 53.855469 306.5 53.117188 304.683594 53.117188 L 128.1875 53.117188 C 126.371094 53.117188 124.59375 53.855469 123.308594 55.136719 C 122.03125 56.421875 121.292969 58.195312 121.292969 60.007812 L 121.292969 122.800781 C 121.292969 124.609375 122.03125 126.386719 123.308594 127.671875 C 124.59375 128.953125 126.371094 129.691406 128.1875 129.691406 L 304.683594 129.691406 C 306.5 129.691406 308.277344 128.953125 309.5625 127.667969 C 310.84375 126.386719 311.578125 124.609375 311.578125 122.800781 L 304.683594 122.800781 "/><path style=" stroke:none;fill-rule:nonzero;fill:#7ed957;fill-opacity:1;" d="M 111.964844 358.582031 L 313.292969 358.582031 C 323.699219 358.582031 332.128906 350.148438 332.128906 339.746094 L 332.128906 34.878906 C 332.128906 24.472656 323.699219 16.042969 313.292969 16.042969 L 111.964844 16.042969 L 111.964844 358.582031 "/><path style=" stroke:none;fill-rule:nonzero;fill:#000000;fill-opacity:1;" d="M 111.964844 358.582031 L 111.964844 359.074219 L 313.292969 359.074219 C 323.96875 359.074219 332.621094 350.421875 332.621094 339.746094 L 332.621094 34.878906 C 332.621094 24.199219 323.96875 15.550781 313.292969 15.550781 L 111.964844 15.550781 C 111.835938 15.550781 111.707031 15.601562 111.617188 15.691406 C 111.523438 15.785156 111.46875 15.910156 111.46875 16.042969 L 111.46875 358.582031 C 111.46875 358.710938 111.523438 358.835938 111.617188 358.925781 C 111.707031 359.019531 111.835938 359.074219 111.964844 359.074219 L 111.964844 358.582031 L 112.457031 358.582031 L 112.457031 16.535156 L 313.292969 16.535156 C 318.359375 16.535156 322.945312 18.585938 326.261719 21.90625 C 329.582031 25.226562 331.636719 29.808594 331.636719 34.878906 L 331.636719 339.746094 C 331.636719 344.8125 329.582031 349.394531 326.261719 352.714844 C 322.945312 356.039062 318.359375 358.085938 313.292969 358.085938 L 111.964844 358.085938 L 111.964844 358.582031 L 112.457031 358.582031 L 111.964844 358.582031 "/><path style=" stroke:none;fill-rule:nonzero;fill:#5e17eb;fill-opacity:1;" d="M 97.46875 67.074219 C 97.46875 74.34375 91.574219 80.230469 84.3125 80.230469 C 77.042969 80.230469 71.152344 74.34375 71.152344 67.074219 C 71.152344 59.804688 77.042969 53.921875 84.3125 53.921875 C 91.574219 53.921875 97.46875 59.804688 97.46875 67.074219 Z M 97.46875 129.863281 C 97.46875 137.128906 91.574219 143.019531 84.3125 143.019531 C 77.042969 143.019531 71.152344 137.128906 71.152344 129.863281 C 71.152344 122.59375 77.042969 116.703125 84.3125 116.703125 C 91.574219 116.703125 97.46875 122.59375 97.46875 129.863281 Z M 97.46875 192.648438 C 97.46875 199.914062 91.574219 205.808594 84.3125 205.808594 C 77.042969 205.808594 71.152344 199.914062 71.152344 192.648438 C 71.152344 185.382812 77.042969 179.492188 84.3125 179.492188 C 91.574219 179.492188 97.46875 185.382812 97.46875 192.648438 Z M 97.46875 255.433594 C 97.46875 262.703125 91.574219 268.59375 84.3125 268.59375 C 77.042969 268.59375 71.152344 262.703125 71.152344 255.433594 C 71.152344 248.167969 77.042969 242.277344 84.3125 242.277344 C 91.574219 242.277344 97.46875 248.167969 97.46875 255.433594 Z M 97.46875 318.21875 C 97.46875 325.492188 91.574219 331.378906 84.3125 331.378906 C 77.042969 331.378906 71.152344 325.492188 71.152344 318.21875 C 71.152344 310.957031 77.042969 305.070312 84.3125 305.070312 C 91.574219 305.070312 97.46875 310.957031 97.46875 318.21875 Z M 65.628906 34.878906 L 65.628906 339.746094 C 65.628906 350.148438 74.066406 358.582031 84.464844 358.582031 L 111.964844 358.582031 L 111.964844 16.042969 L 84.464844 16.042969 C 74.066406 16.042969 65.628906 24.472656 65.628906 34.878906 "/><path style=" stroke:none;fill-rule:nonzero;fill:#000000;fill-opacity:1;" d="M 97.46875 67.074219 L 96.976562 67.074219 C 96.976562 70.574219 95.558594 73.738281 93.265625 76.03125 C 90.972656 78.324219 87.808594 79.738281 84.3125 79.738281 C 80.8125 79.738281 77.648438 78.324219 75.351562 76.03125 C 73.0625 73.738281 71.644531 70.574219 71.644531 67.074219 C 71.644531 63.574219 73.0625 60.414062 75.351562 58.121094 C 77.648438 55.824219 80.8125 54.414062 84.3125 54.414062 C 87.808594 54.414062 90.972656 55.824219 93.265625 58.121094 C 95.558594 60.414062 96.976562 63.574219 96.976562 67.074219 L 97.960938 67.074219 C 97.960938 59.535156 91.847656 53.425781 84.3125 53.425781 C 76.773438 53.425781 70.660156 59.535156 70.660156 67.074219 C 70.660156 74.617188 76.773438 80.722656 84.3125 80.722656 C 91.847656 80.722656 97.960938 74.617188 97.960938 67.074219 Z M 97.46875 129.863281 L 96.976562 129.863281 C 96.976562 133.359375 95.558594 136.523438 93.265625 138.816406 C 90.972656 141.109375 87.808594 142.523438 84.3125 142.523438 C 80.8125 142.523438 77.648438 141.109375 75.351562 138.816406 C 73.0625 136.523438 71.644531 133.359375 71.644531 129.863281 C 71.644531 126.363281 73.0625 123.199219 75.351562 120.90625 C 77.648438 118.613281 80.8125 117.195312 84.3125 117.195312 C 87.808594 117.195312 90.972656 118.613281 93.265625 120.90625 C 95.558594 123.199219 96.976562 126.363281 96.976562 129.863281 L 97.960938 129.863281 C 97.960938 122.324219 91.847656 116.210938 84.3125 116.210938 C 76.773438 116.210938 70.660156 122.324219 70.660156 129.863281 C 70.660156 137.402344 76.773438 143.511719 84.3125 143.511719 C 91.847656 143.511719 97.960938 137.402344 97.960938 129.863281 Z M 97.46875 192.648438 L 96.976562 192.648438 C 96.976562 196.148438 95.558594 199.3125 93.265625 201.601562 C 90.972656 203.898438 87.808594 205.316406 84.3125 205.316406 C 80.8125 205.316406 77.648438 203.898438 75.351562 201.601562 C 73.0625 199.3125 71.644531 196.148438 71.644531 192.648438 C 71.644531 189.148438 73.0625 185.984375 75.351562 183.691406 C 77.648438 181.398438 80.8125 179.984375 84.3125 179.984375 C 87.808594 179.984375 90.972656 181.398438 93.265625 183.691406 C 95.558594 185.984375 96.976562 189.148438 96.976562 192.648438 L 97.960938 192.648438 C 97.960938 185.109375 91.847656 179 84.3125 179 C 76.773438 179 70.660156 185.109375 70.660156 192.648438 C 70.660156 200.1875 76.773438 206.300781 84.3125 206.300781 C 91.847656 206.300781 97.960938 200.1875 97.960938 192.648438 Z M 97.46875 255.433594 L 96.976562 255.433594 C 96.976562 258.933594 95.558594 262.101562 93.265625 264.394531 C 90.972656 266.6875 87.808594 268.101562 84.3125 268.101562 C 80.8125 268.101562 77.648438 266.6875 75.351562 264.394531 C 73.0625 262.101562 71.644531 258.933594 71.644531 255.433594 C 71.644531 251.9375 73.0625 248.777344 75.351562 246.480469 C 77.648438 244.1875 80.8125 242.769531 84.3125 242.769531 C 87.808594 242.769531 90.972656 244.1875 93.265625 246.480469 C 95.558594 248.777344 96.976562 251.9375 96.976562 255.433594 L 97.960938 255.433594 C 97.960938 247.898438 91.847656 241.785156 84.3125 241.785156 C 76.773438 241.785156 70.660156 247.898438 70.660156 255.433594 C 70.660156 262.976562 76.773438 269.085938 84.3125 269.085938 C 91.847656 269.085938 97.960938 262.976562 97.960938 255.433594 Z M 97.46875 318.21875 L 96.976562 318.21875 C 96.976562 321.722656 95.558594 324.886719 93.265625 327.179688 C 90.972656 329.472656 87.808594 330.886719 84.3125 330.886719 C 80.8125 330.886719 77.648438 329.472656 75.351562 327.179688 C 73.0625 324.886719 71.644531 321.722656 71.644531 318.21875 C 71.644531 314.722656 73.0625 311.5625 75.351562 309.269531 C 77.648438 306.976562 80.8125 305.5625 84.3125 305.5625 C 87.808594 305.5625 90.972656 306.976562 93.265625 309.269531 C 95.558594 311.5625 96.976562 314.722656 96.976562 318.21875 L 97.960938 318.21875 C 97.960938 310.683594 91.847656 304.574219 84.3125 304.574219 C 76.773438 304.574219 70.660156 310.683594 70.660156 318.21875 C 70.660156 325.765625 76.773438 331.871094 84.3125 331.871094 C 91.847656 331.871094 97.960938 325.765625 97.960938 318.21875 Z M 65.628906 34.878906 L 65.136719 34.878906 L 65.136719 339.746094 C 65.136719 350.421875 73.792969 359.074219 84.464844 359.074219 L 111.964844 359.074219 C 112.097656 359.074219 112.21875 359.023438 112.3125 358.925781 C 112.40625 358.835938 112.457031 358.710938 112.457031 358.582031 L 112.457031 16.042969 C 112.457031 15.910156 112.40625 15.785156 112.3125 15.691406 C 112.21875 15.601562 112.09375 15.550781 111.964844 15.550781 L 84.464844 15.550781 C 73.792969 15.550781 65.136719 24.199219 65.136719 34.878906 L 66.121094 34.878906 C 66.121094 29.808594 68.175781 25.226562 71.496094 21.90625 C 74.820312 18.585938 79.398438 16.535156 84.464844 16.535156 L 111.46875 16.535156 L 111.46875 358.085938 L 84.464844 358.085938 C 79.398438 358.085938 74.820312 356.039062 71.496094 352.714844 C 68.175781 349.394531 66.121094 344.8125 66.121094 339.746094 L 66.121094 34.878906 L 65.628906 34.878906 "/><path style=" stroke:none;fill-rule:nonzero;fill:#ffffff;fill-opacity:1;" d="M 80.496094 311.15625 C 84.003906 311.15625 86.851562 314.324219 86.851562 318.21875 C 86.851562 322.125 84.003906 325.285156 80.496094 325.285156 L 50.824219 325.285156 C 47.316406 325.285156 44.46875 322.125 44.46875 318.21875 C 44.46875 314.324219 47.316406 311.15625 50.824219 311.15625 L 80.496094 311.15625 "/><path style=" stroke:none;fill-rule:nonzero;fill:#000000;fill-opacity:1;" d="M 80.496094 311.15625 L 80.496094 311.648438 C 82.101562 311.652344 83.554688 312.375 84.625 313.558594 C 85.691406 314.742188 86.359375 316.394531 86.359375 318.21875 C 86.359375 320.050781 85.691406 321.703125 84.625 322.886719 C 83.554688 324.074219 82.101562 324.792969 80.496094 324.792969 L 50.824219 324.792969 C 49.21875 324.792969 47.765625 324.074219 46.695312 322.886719 C 45.628906 321.703125 44.960938 320.050781 44.960938 318.21875 C 44.960938 316.394531 45.628906 314.742188 46.695312 313.558594 C 47.765625 312.375 49.21875 311.652344 50.824219 311.648438 L 80.496094 311.648438 L 80.496094 310.664062 L 50.824219 310.664062 C 48.917969 310.664062 47.195312 311.527344 45.964844 312.898438 C 44.734375 314.269531 43.976562 316.152344 43.976562 318.21875 C 43.976562 320.292969 44.734375 322.175781 45.964844 323.546875 C 47.195312 324.917969 48.917969 325.777344 50.824219 325.777344 L 80.496094 325.777344 C 82.402344 325.777344 84.125 324.917969 85.355469 323.546875 C 86.589844 322.175781 87.34375 320.292969 87.34375 318.21875 C 87.34375 316.152344 86.589844 314.269531 85.355469 312.898438 C 84.125 311.527344 82.402344 310.664062 80.496094 310.664062 L 80.496094 311.15625 "/><path style=" stroke:none;fill-rule:nonzero;fill:#ffffff;fill-opacity:1;" d="M 80.496094 248.371094 C 84.003906 248.371094 86.851562 251.535156 86.851562 255.433594 C 86.851562 259.335938 84.003906 262.496094 80.496094 262.496094 L 50.824219 262.496094 C 47.316406 262.496094 44.46875 259.335938 44.46875 255.433594 C 44.46875 251.535156 47.316406 248.371094 50.824219 248.371094 L 80.496094 248.371094 "/><path style=" stroke:none;fill-rule:nonzero;fill:#000000;fill-opacity:1;" d="M 80.496094 248.371094 L 80.496094 248.863281 C 82.101562 248.863281 83.554688 249.582031 84.625 250.769531 C 85.691406 251.957031 86.359375 253.605469 86.359375 255.433594 C 86.359375 257.265625 85.691406 258.914062 84.625 260.101562 C 83.554688 261.285156 82.101562 262.003906 80.496094 262.003906 L 50.824219 262.003906 C 49.21875 262.003906 47.765625 261.285156 46.695312 260.101562 C 45.628906 258.914062 44.960938 257.265625 44.960938 255.433594 C 44.960938 253.605469 45.628906 251.957031 46.695312 250.769531 C 47.765625 249.582031 49.21875 248.863281 50.824219 248.863281 L 80.496094 248.863281 L 80.496094 247.878906 L 50.824219 247.878906 C 48.917969 247.878906 47.195312 248.742188 45.964844 250.109375 C 44.734375 251.484375 43.976562 253.363281 43.976562 255.433594 C 43.976562 257.507812 44.734375 259.386719 45.964844 260.757812 C 47.195312 262.128906 48.917969 262.992188 50.824219 262.988281 L 80.496094 262.988281 C 82.402344 262.992188 84.125 262.128906 85.355469 260.757812 C 86.589844 259.386719 87.34375 257.507812 87.34375 255.433594 C 87.34375 253.363281 86.589844 251.484375 85.355469 250.109375 C 84.125 248.742188 82.402344 247.878906 80.496094 247.878906 L 80.496094 248.371094 "/><path style=" stroke:none;fill-rule:nonzero;fill:#ffffff;fill-opacity:1;" d="M 80.496094 185.585938 C 84.003906 185.585938 86.851562 188.75 86.851562 192.648438 C 86.851562 196.546875 84.003906 199.710938 80.496094 199.710938 L 50.824219 199.710938 C 47.316406 199.710938 44.46875 196.546875 44.46875 192.648438 C 44.46875 188.75 47.316406 185.585938 50.824219 185.585938 L 80.496094 185.585938 "/><path style=" stroke:none;fill-rule:nonzero;fill:#000000;fill-opacity:1;" d="M 80.496094 185.585938 L 80.496094 186.078125 C 82.101562 186.078125 83.554688 186.796875 84.625 187.980469 C 85.691406 189.171875 86.359375 190.816406 86.359375 192.648438 C 86.359375 194.480469 85.691406 196.128906 84.625 197.3125 C 83.554688 198.5 82.101562 199.21875 80.496094 199.21875 L 50.824219 199.21875 C 49.21875 199.21875 47.765625 198.5 46.695312 197.3125 C 45.628906 196.128906 44.960938 194.480469 44.960938 192.648438 C 44.960938 190.816406 45.628906 189.171875 46.695312 187.980469 C 47.765625 186.796875 49.21875 186.078125 50.824219 186.078125 L 80.496094 186.078125 L 80.496094 185.09375 L 50.824219 185.09375 C 48.917969 185.09375 47.195312 185.953125 45.964844 187.324219 C 44.734375 188.699219 43.976562 190.578125 43.976562 192.648438 C 43.976562 194.71875 44.734375 196.601562 45.964844 197.972656 C 47.195312 199.339844 48.917969 200.207031 50.824219 200.203125 L 80.496094 200.203125 C 82.402344 200.207031 84.125 199.339844 85.355469 197.972656 C 86.589844 196.601562 87.34375 194.71875 87.34375 192.648438 C 87.34375 190.578125 86.589844 188.699219 85.355469 187.324219 C 84.125 185.953125 82.402344 185.09375 80.496094 185.09375 L 80.496094 185.585938 "/><path style=" stroke:none;fill-rule:nonzero;fill:#ffffff;fill-opacity:1;" d="M 80.496094 122.800781 C 84.003906 122.800781 86.851562 125.960938 86.851562 129.863281 C 86.851562 133.761719 84.003906 136.925781 80.496094 136.925781 L 50.824219 136.925781 C 47.316406 136.925781 44.46875 133.761719 44.46875 129.863281 C 44.46875 125.960938 47.316406 122.800781 50.824219 122.800781 L 80.496094 122.800781 "/><path style=" stroke:none;fill-rule:nonzero;fill:#000000;fill-opacity:1;" d="M 80.496094 122.800781 L 80.496094 123.292969 C 82.101562 123.292969 83.554688 124.011719 84.625 125.195312 C 85.691406 126.378906 86.359375 128.03125 86.359375 129.863281 C 86.359375 131.691406 85.691406 133.339844 84.625 134.523438 C 83.554688 135.710938 82.101562 136.433594 80.496094 136.433594 L 50.824219 136.433594 C 49.21875 136.433594 47.765625 135.710938 46.695312 134.527344 C 45.628906 133.339844 44.960938 131.691406 44.960938 129.863281 C 44.960938 128.03125 45.628906 126.378906 46.695312 125.195312 C 47.765625 124.011719 49.21875 123.292969 50.824219 123.292969 L 80.496094 123.289062 L 80.496094 122.308594 L 50.824219 122.308594 C 48.917969 122.304688 47.195312 123.167969 45.964844 124.539062 C 44.734375 125.90625 43.976562 127.792969 43.976562 129.863281 C 43.976562 131.929688 44.734375 133.8125 45.964844 135.1875 C 47.195312 136.554688 48.917969 137.417969 50.824219 137.417969 L 80.496094 137.417969 C 82.402344 137.417969 84.125 136.554688 85.355469 135.1875 C 86.589844 133.8125 87.34375 131.929688 87.34375 129.863281 C 87.34375 127.792969 86.589844 125.90625 85.355469 124.539062 C 84.125 123.167969 82.402344 122.304688 80.496094 122.304688 L 80.496094 122.800781 "/><path style=" stroke:none;fill-rule:nonzero;fill:#ffffff;fill-opacity:1;" d="M 80.496094 60.007812 C 84.003906 60.007812 86.851562 63.175781 86.851562 67.074219 C 86.851562 70.976562 84.003906 74.136719 80.496094 74.136719 L 50.824219 74.136719 C 47.316406 74.136719 44.46875 70.976562 44.46875 67.074219 C 44.46875 63.175781 47.316406 60.007812 50.824219 60.007812 L 80.496094 60.007812 "/><path style=" stroke:none;fill-rule:nonzero;fill:#000000;fill-opacity:1;" d="M 80.496094 60.007812 L 80.496094 60.5 C 82.101562 60.5 83.554688 61.226562 84.625 62.410156 C 85.691406 63.59375 86.359375 65.246094 86.359375 67.074219 C 86.359375 68.902344 85.691406 70.554688 84.625 71.738281 C 83.554688 72.925781 82.101562 73.644531 80.496094 73.644531 L 50.824219 73.644531 C 49.21875 73.644531 47.765625 72.925781 46.695312 71.738281 C 45.628906 70.554688 44.960938 68.902344 44.960938 67.074219 C 44.960938 65.246094 45.628906 63.59375 46.695312 62.410156 C 47.765625 61.226562 49.21875 60.5 50.824219 60.5 L 80.496094 60.5 L 80.496094 59.515625 L 50.824219 59.515625 C 48.917969 59.515625 47.195312 60.378906 45.964844 61.75 C 44.734375 63.121094 43.976562 65.003906 43.976562 67.074219 C 43.976562 69.144531 44.734375 71.027344 45.964844 72.398438 C 47.195312 73.769531 48.917969 74.628906 50.824219 74.628906 L 80.496094 74.628906 C 82.402344 74.628906 84.125 73.769531 85.355469 72.398438 C 86.589844 71.027344 87.34375 69.144531 87.34375 67.074219 C 87.34375 65.003906 86.589844 63.121094 85.355469 61.75 C 84.125 60.378906 82.402344 59.515625 80.496094 59.515625 L 80.496094 60.007812 "/><path style=" stroke:none;fill-rule:nonzero;fill:#ffffff;fill-opacity:1;" d="M 304.683594 122.800781 L 128.1875 122.800781 L 128.1875 60.007812 L 304.683594 60.007812 L 304.683594 122.800781 "/><path style=" stroke:none;fill-rule:nonzero;fill:#000000;fill-opacity:1;" d="M 304.683594 122.800781 L 304.683594 122.304688 L 128.675781 122.304688 L 128.675781 60.5 L 304.191406 60.5 L 304.191406 122.800781 L 304.683594 122.800781 L 304.683594 122.304688 L 304.683594 122.800781 L 305.175781 122.800781 L 305.175781 60.007812 C 305.175781 59.882812 305.125 59.753906 305.035156 59.664062 C 304.941406 59.570312 304.8125 59.515625 304.683594 59.515625 L 128.1875 59.515625 C 128.058594 59.515625 127.929688 59.570312 127.839844 59.664062 C 127.746094 59.753906 127.691406 59.882812 127.691406 60.007812 L 127.691406 122.800781 C 127.691406 122.925781 127.746094 123.054688 127.839844 123.144531 C 127.929688 123.238281 128.058594 123.292969 128.1875 123.292969 L 304.683594 123.292969 C 304.8125 123.292969 304.941406 123.238281 305.035156 123.144531 C 305.125 123.054688 305.175781 122.925781 305.175781 122.800781 L 304.683594 122.800781 "/><g style="fill:#000000;fill-opacity:1;"><g transform="translate(134.127579, 100.182634)"><path style="stroke:none" d="M 22.953125 -22.359375 L 22.953125 -0.109375 L 20.140625 -0.109375 L 20.140625 -6.53125 L 15.828125 -6.53125 L 15.828125 -2.03125 L 1.53125 -2.03125 L 1.53125 -22.09375 L 4.359375 -22.09375 L 4.359375 -4.65625 L 13.015625 -4.65625 L 13.015625 -17.25 L 9.5625 -17.25 L 9.5625 -8.734375 L 6.75 -8.734375 L 6.75 -20.140625 L 15.828125 -20.140625 L 15.828125 -9.34375 L 20.140625 -9.34375 L 20.140625 -22.359375 L -1.203125 -22.359375 L -1.203125 -25.203125 L 26.375 -25.203125 L 26.375 -22.359375 Z M 30.453125 -22.359375 L 30.453125 1.90625 L 27.640625 1.90625 L 27.640625 -22.359375 L 23.359375 -22.359375 L 23.359375 -25.203125 L 34.3125 -25.203125 L 34.3125 -22.359375 Z M 30.453125 -22.359375 "/></g></g><g style="fill:#000000;fill-opacity:1;"><g transform="translate(167.477053, 100.182634)"><path style="stroke:none" d="M 16.65625 -22.359375 L 5.515625 -22.359375 L 5.515625 -19.328125 L 12.265625 -19.328125 L 12.265625 -12.984375 L 16.65625 -12.984375 Z M 19.515625 -22.359375 L 19.515625 1.015625 L 16.65625 1.015625 L 16.65625 -10.171875 L 5.546875 -10.171875 L 5.546875 -6.640625 L 14.03125 -6.640625 L 14.03125 -4.046875 L 2.921875 -4.046875 L 2.921875 -12.984375 L 9.53125 -12.984375 L 9.53125 -16.5 L 2.734375 -16.5 L 2.734375 -22.359375 L -1.203125 -22.359375 L -1.203125 -25.203125 L 23.078125 -25.203125 L 23.078125 -22.359375 Z M 19.515625 -22.359375 "/></g></g><g style="fill:#000000;fill-opacity:1;"><g transform="translate(189.384907, 100.182634)"><path style="stroke:none" d="M 5.25 -22.359375 L 5.25 1.90625 L 2.4375 1.90625 L 2.4375 -22.359375 L -1.84375 -22.359375 L -1.84375 -25.203125 L 9.109375 -25.203125 L 9.109375 -22.359375 Z M 5.25 -22.359375 "/></g></g><g style="fill:#000000;fill-opacity:1;"><g transform="translate(197.150199, 100.182634)"><path style="stroke:none" d="M 9.15625 3.828125 L 7.5 3.828125 L 7.5 4.921875 L 9.15625 4.921875 Z M 14 -15.53125 L 4.28125 -15.53125 L 4.28125 -2.96875 L 14 -2.96875 Z M 5.171875 7.125 L 5.171875 1.796875 L 11.375 1.796875 L 11.375 7.125 Z M 16.84375 -22.359375 L 16.84375 -0.15625 L 1.46875 -0.15625 L 1.46875 -18.34375 L 14 -18.34375 L 14 -22.359375 L -1.15625 -22.359375 L -1.15625 -25.203125 L 20.59375 -25.203125 L 20.59375 -22.359375 Z M 16.84375 -22.359375 "/></g></g><g style="fill:#000000;fill-opacity:1;"><g transform="translate(216.582167, 100.182634)"><path style="stroke:none" d=""/></g></g><g style="fill:#000000;fill-opacity:1;"><g transform="translate(230.237066, 100.182634)"><path style="stroke:none" d="M 16.8125 -22.359375 L 16.8125 -0.15625 L 0.75 -0.15625 L 0.75 -14.25 L 7.5 -14.25 L 7.5 -18.078125 L 1.28125 -18.078125 L 1.28125 -26.71875 L 4.09375 -26.71875 L 4.09375 -20.890625 L 7.5 -20.890625 L 7.5 -26.40625 L 10.3125 -26.40625 L 10.3125 -11.4375 L 3.5625 -11.4375 L 3.5625 -2.78125 L 14 -2.78125 L 14 -26.71875 L 16.8125 -26.71875 L 16.8125 -25.203125 L 20.03125 -25.203125 L 20.03125 -22.359375 Z M 16.8125 -22.359375 "/></g></g><g style="fill:#000000;fill-opacity:1;"><g transform="translate(249.106346, 100.182634)"><path style="stroke:none" d="M 5.25 -22.359375 L 5.25 1.90625 L 2.4375 1.90625 L 2.4375 -22.359375 L -1.84375 -22.359375 L -1.84375 -25.203125 L 9.109375 -25.203125 L 9.109375 -22.359375 Z M 5.25 -22.359375 "/></g></g><g style="fill:#000000;fill-opacity:1;"><g transform="translate(256.871638, 100.182634)"><path style="stroke:none" d="M 1.65625 -0.15625 L 1.65625 -22.46875 L 4.46875 -22.46875 L 4.46875 -2.96875 L 14.59375 -2.96875 L 14.59375 -17.890625 L 10.609375 -17.890625 L 10.609375 -10.609375 L 7.796875 -10.609375 L 7.796875 -20.703125 L 17.40625 -20.703125 L 17.40625 -0.15625 Z M -1.28125 -22.359375 L -1.28125 -25.203125 L 20.5625 -25.203125 L 20.5625 -22.359375 Z M -1.28125 -22.359375 "/></g></g><g style="fill:#000000;fill-opacity:1;"><g transform="translate(277.016364, 100.182634)"><path style="stroke:none" d="M 5.25 -22.359375 L 5.25 1.90625 L 2.4375 1.90625 L 2.4375 -22.359375 L -1.84375 -22.359375 L -1.84375 -25.203125 L 9.109375 -25.203125 L 9.109375 -22.359375 Z M 5.25 -22.359375 "/></g></g><g style="fill:#000000;fill-opacity:1;"><g transform="translate(284.801076, 100.182634)"><path style="stroke:none" d=""/></g></g></g></svg>