<svg xmlns="http://www.w3.org/2000/svg" xmlns:xlink="http://www.w3.org/1999/xlink" width="48" zoomAndPan="magnify" viewBox="0 0 36 36.000001" height="48" preserveAspectRatio="xMidYMid meet" version="1.2"><defs><clipPath id="2c4f12cc0a"><path d="M 10 0.855469 L 32.449219 0.855469 L 32.449219 34.425781 L 10 34.425781 Z M 10 0.855469 "/></clipPath><clipPath id="ac87b3f696"><path d="M 5 0.855469 L 12 0.855469 L 12 34.425781 L 5 34.425781 Z M 5 0.855469 "/></clipPath><clipPath id="f6a68f7779"><path d="M 3.988281 28 L 10 28 L 10 32 L 3.988281 32 Z M 3.988281 28 "/></clipPath><clipPath id="faa0755a92"><path d="M 3.988281 22 L 10 22 L 10 26 L 3.988281 26 Z M 3.988281 22 "/></clipPath><clipPath id="366149a6e2"><path d="M 3.988281 16 L 10 16 L 10 20 L 3.988281 20 Z M 3.988281 16 "/></clipPath><clipPath id="134a7dbcf6"><path d="M 3.988281 10 L 10 10 L 10 14 L 3.988281 14 Z M 3.988281 10 "/></clipPath><clipPath id="398ca3f25b"><path d="M 3.988281 4 L 10 4 L 10 8 L 3.988281 8 Z M 3.988281 4 "/></clipPath></defs><g id="43346bd420"><g clip-rule="nonzero" clip-path="url(#2c4f12cc0a)"><path style=" stroke:none;fill-rule:nonzero;fill:#000000;fill-opacity:1;" d="M 10.953125 33.519531 L 10.953125 34.164062 L 29.769531 34.164062 C 30.101562 34.164062 30.417969 34.097656 30.707031 33.972656 C 31.140625 33.792969 31.503906 33.488281 31.765625 33.105469 C 32.023438 32.71875 32.175781 32.253906 32.175781 31.757812 L 32.175781 3.257812 C 32.175781 2.929688 32.109375 2.613281 31.988281 2.324219 C 31.804688 1.890625 31.5 1.523438 31.117188 1.265625 C 30.734375 1.007812 30.265625 0.855469 29.769531 0.855469 L 10.953125 0.855469 C 10.78125 0.855469 10.617188 0.921875 10.496094 1.042969 C 10.375 1.164062 10.304688 1.328125 10.304688 1.5 L 10.304688 33.519531 C 10.304688 33.6875 10.375 33.855469 10.496094 33.976562 C 10.617188 34.09375 10.78125 34.164062 10.953125 34.164062 L 10.953125 33.519531 L 11.59375 33.519531 L 11.59375 2.144531 L 29.769531 2.144531 C 29.925781 2.144531 30.074219 2.175781 30.207031 2.230469 C 30.40625 2.316406 30.578125 2.457031 30.695312 2.636719 C 30.816406 2.816406 30.886719 3.027344 30.886719 3.257812 L 30.886719 31.757812 C 30.886719 31.914062 30.855469 32.058594 30.800781 32.191406 C 30.714844 32.390625 30.574219 32.5625 30.394531 32.683594 C 30.214844 32.804688 30.003906 32.875 29.769531 32.875 L 10.953125 32.875 L 10.953125 33.519531 L 11.59375 33.519531 L 10.953125 33.519531 "/></g><g clip-rule="nonzero" clip-path="url(#ac87b3f696)"><path style=" stroke:none;fill-rule:nonzero;fill:#000000;fill-opacity:1;" d="M 9.597656 6.269531 L 8.953125 6.269531 C 8.953125 6.351562 8.933594 6.425781 8.90625 6.496094 C 8.863281 6.601562 8.785156 6.691406 8.691406 6.753906 C 8.597656 6.820312 8.488281 6.855469 8.367188 6.855469 C 8.285156 6.855469 8.207031 6.839844 8.136719 6.808594 C 8.035156 6.765625 7.941406 6.691406 7.878906 6.597656 C 7.816406 6.503906 7.78125 6.394531 7.78125 6.269531 C 7.78125 6.1875 7.796875 6.109375 7.824219 6.042969 C 7.871094 5.9375 7.945312 5.847656 8.039062 5.785156 C 8.132812 5.71875 8.242188 5.683594 8.367188 5.683594 C 8.449219 5.683594 8.523438 5.699219 8.59375 5.730469 C 8.699219 5.773438 8.789062 5.847656 8.851562 5.941406 C 8.914062 6.035156 8.953125 6.144531 8.953125 6.269531 L 10.242188 6.269531 C 10.242188 6.011719 10.1875 5.765625 10.09375 5.539062 C 9.949219 5.203125 9.714844 4.917969 9.414062 4.714844 C 9.117188 4.511719 8.75 4.394531 8.367188 4.394531 C 8.109375 4.394531 7.859375 4.449219 7.636719 4.542969 C 7.300781 4.683594 7.015625 4.921875 6.8125 5.222656 C 6.609375 5.519531 6.492188 5.882812 6.492188 6.269531 C 6.492188 6.527344 6.542969 6.773438 6.640625 7 C 6.78125 7.335938 7.019531 7.621094 7.316406 7.824219 C 7.617188 8.023438 7.980469 8.144531 8.367188 8.144531 C 8.625 8.144531 8.871094 8.089844 9.097656 7.996094 C 9.433594 7.851562 9.71875 7.617188 9.917969 7.316406 C 10.121094 7.019531 10.242188 6.65625 10.242188 6.269531 Z M 9.597656 12.140625 L 8.953125 12.140625 C 8.953125 12.222656 8.933594 12.296875 8.90625 12.367188 C 8.863281 12.46875 8.785156 12.5625 8.691406 12.625 C 8.597656 12.6875 8.488281 12.722656 8.367188 12.722656 C 8.285156 12.722656 8.207031 12.707031 8.136719 12.679688 C 8.035156 12.632812 7.941406 12.558594 7.878906 12.464844 C 7.816406 12.371094 7.78125 12.261719 7.78125 12.140625 C 7.78125 12.054688 7.796875 11.980469 7.824219 11.910156 C 7.871094 11.808594 7.945312 11.714844 8.039062 11.652344 C 8.132812 11.589844 8.242188 11.554688 8.367188 11.554688 C 8.449219 11.554688 8.523438 11.570312 8.59375 11.597656 C 8.699219 11.644531 8.789062 11.71875 8.851562 11.8125 C 8.914062 11.90625 8.953125 12.015625 8.953125 12.140625 L 10.242188 12.140625 C 10.242188 11.882812 10.1875 11.632812 10.09375 11.410156 C 9.949219 11.070312 9.714844 10.785156 9.414062 10.585938 C 9.117188 10.382812 8.75 10.265625 8.367188 10.265625 C 8.109375 10.265625 7.859375 10.316406 7.636719 10.410156 C 7.300781 10.554688 7.015625 10.792969 6.8125 11.089844 C 6.609375 11.386719 6.492188 11.753906 6.492188 12.140625 C 6.492188 12.394531 6.542969 12.644531 6.640625 12.867188 C 6.78125 13.207031 7.019531 13.492188 7.316406 13.691406 C 7.617188 13.894531 7.980469 14.011719 8.367188 14.011719 C 8.625 14.011719 8.871094 13.960938 9.097656 13.867188 C 9.433594 13.722656 9.71875 13.484375 9.917969 13.1875 C 10.121094 12.890625 10.242188 12.523438 10.242188 12.140625 Z M 9.597656 18.007812 L 8.953125 18.007812 C 8.953125 18.089844 8.933594 18.164062 8.90625 18.234375 C 8.863281 18.339844 8.785156 18.429688 8.691406 18.492188 C 8.597656 18.558594 8.488281 18.59375 8.367188 18.59375 C 8.285156 18.59375 8.207031 18.578125 8.136719 18.546875 C 8.035156 18.503906 7.941406 18.429688 7.878906 18.335938 C 7.816406 18.242188 7.78125 18.132812 7.78125 18.007812 C 7.78125 17.925781 7.796875 17.851562 7.824219 17.78125 C 7.871094 17.675781 7.945312 17.585938 8.039062 17.523438 C 8.132812 17.457031 8.242188 17.421875 8.367188 17.421875 C 8.449219 17.421875 8.523438 17.4375 8.59375 17.46875 C 8.699219 17.511719 8.789062 17.585938 8.851562 17.679688 C 8.914062 17.773438 8.953125 17.882812 8.953125 18.007812 L 10.242188 18.007812 C 10.242188 17.75 10.1875 17.503906 10.09375 17.277344 C 9.949219 16.941406 9.714844 16.65625 9.414062 16.453125 C 9.117188 16.253906 8.75 16.132812 8.367188 16.132812 C 8.109375 16.132812 7.859375 16.1875 7.636719 16.28125 C 7.300781 16.425781 7.015625 16.660156 6.8125 16.960938 C 6.609375 17.257812 6.492188 17.621094 6.492188 18.007812 C 6.492188 18.265625 6.542969 18.511719 6.640625 18.738281 C 6.78125 19.074219 7.019531 19.359375 7.316406 19.5625 C 7.617188 19.765625 7.980469 19.882812 8.367188 19.882812 C 8.625 19.882812 8.871094 19.828125 9.097656 19.734375 C 9.433594 19.59375 9.71875 19.355469 9.917969 19.054688 C 10.121094 18.757812 10.242188 18.394531 10.242188 18.007812 Z M 9.597656 23.878906 L 8.953125 23.878906 C 8.953125 23.960938 8.933594 24.035156 8.90625 24.105469 C 8.863281 24.210938 8.785156 24.300781 8.691406 24.363281 C 8.597656 24.425781 8.488281 24.460938 8.367188 24.460938 C 8.285156 24.460938 8.207031 24.445312 8.136719 24.417969 C 8.035156 24.371094 7.941406 24.296875 7.878906 24.203125 C 7.816406 24.109375 7.78125 24 7.78125 23.878906 C 7.78125 23.792969 7.796875 23.71875 7.824219 23.648438 C 7.871094 23.546875 7.945312 23.453125 8.039062 23.390625 C 8.132812 23.328125 8.242188 23.292969 8.367188 23.292969 C 8.449219 23.292969 8.523438 23.308594 8.59375 23.335938 C 8.699219 23.382812 8.789062 23.457031 8.851562 23.550781 C 8.914062 23.644531 8.953125 23.753906 8.953125 23.878906 L 10.242188 23.878906 C 10.242188 23.621094 10.1875 23.371094 10.09375 23.148438 C 9.949219 22.808594 9.714844 22.527344 9.414062 22.324219 C 9.117188 22.121094 8.75 22.003906 8.367188 22.003906 C 8.109375 22.003906 7.859375 22.054688 7.636719 22.148438 C 7.300781 22.292969 7.015625 22.53125 6.8125 22.828125 C 6.609375 23.128906 6.492188 23.492188 6.492188 23.878906 C 6.492188 24.132812 6.542969 24.382812 6.640625 24.605469 C 6.78125 24.945312 7.019531 25.230469 7.316406 25.429688 C 7.617188 25.632812 7.980469 25.753906 8.367188 25.75 C 8.625 25.75 8.871094 25.699219 9.097656 25.605469 C 9.433594 25.460938 9.71875 25.222656 9.917969 24.925781 C 10.121094 24.628906 10.242188 24.261719 10.242188 23.878906 Z M 9.597656 29.746094 L 8.953125 29.746094 C 8.953125 29.828125 8.933594 29.90625 8.90625 29.972656 C 8.863281 30.078125 8.785156 30.167969 8.691406 30.234375 C 8.597656 30.296875 8.488281 30.332031 8.367188 30.332031 C 8.285156 30.332031 8.207031 30.316406 8.136719 30.285156 C 8.035156 30.242188 7.941406 30.167969 7.878906 30.074219 C 7.816406 29.980469 7.78125 29.871094 7.78125 29.746094 C 7.78125 29.664062 7.796875 29.589844 7.824219 29.519531 C 7.871094 29.414062 7.945312 29.324219 8.039062 29.261719 C 8.132812 29.199219 8.242188 29.160156 8.367188 29.160156 C 8.449219 29.160156 8.523438 29.175781 8.59375 29.207031 C 8.699219 29.25 8.789062 29.324219 8.851562 29.417969 C 8.914062 29.515625 8.953125 29.625 8.953125 29.746094 L 10.242188 29.746094 C 10.242188 29.488281 10.1875 29.242188 10.09375 29.015625 C 9.949219 28.679688 9.714844 28.394531 9.414062 28.191406 C 9.117188 27.992188 8.75 27.871094 8.367188 27.871094 C 8.109375 27.871094 7.859375 27.925781 7.636719 28.019531 C 7.300781 28.164062 7.015625 28.398438 6.8125 28.699219 C 6.609375 28.996094 6.492188 29.359375 6.492188 29.746094 C 6.492188 30.003906 6.542969 30.25 6.640625 30.476562 C 6.78125 30.8125 7.019531 31.097656 7.316406 31.300781 C 7.617188 31.503906 7.980469 31.621094 8.367188 31.621094 C 8.625 31.621094 8.871094 31.570312 9.097656 31.472656 C 9.433594 31.332031 9.71875 31.09375 9.917969 30.796875 C 10.121094 30.496094 10.242188 30.132812 10.242188 29.746094 Z M 6.621094 3.257812 L 5.976562 3.257812 L 5.976562 31.757812 C 5.976562 32.089844 6.042969 32.40625 6.164062 32.695312 C 6.347656 33.128906 6.652344 33.492188 7.035156 33.753906 C 7.417969 34.011719 7.882812 34.164062 8.378906 34.164062 L 10.953125 34.164062 C 11.121094 34.164062 11.285156 34.09375 11.40625 33.976562 C 11.527344 33.855469 11.59375 33.6875 11.59375 33.519531 L 11.59375 1.5 C 11.59375 1.328125 11.527344 1.164062 11.40625 1.042969 C 11.285156 0.921875 11.121094 0.855469 10.953125 0.855469 L 8.378906 0.855469 C 8.050781 0.855469 7.730469 0.921875 7.445312 1.042969 C 7.011719 1.226562 6.644531 1.53125 6.386719 1.914062 C 6.128906 2.296875 5.976562 2.761719 5.976562 3.257812 L 7.265625 3.257812 C 7.265625 3.105469 7.296875 2.957031 7.351562 2.824219 C 7.4375 2.625 7.578125 2.453125 7.757812 2.332031 C 7.9375 2.214844 8.148438 2.144531 8.378906 2.144531 L 10.304688 2.144531 L 10.304688 32.875 L 8.378906 32.875 C 8.226562 32.875 8.078125 32.84375 7.945312 32.789062 C 7.746094 32.703125 7.574219 32.558594 7.453125 32.382812 C 7.335938 32.203125 7.265625 31.992188 7.265625 31.757812 L 7.265625 3.257812 L 6.621094 3.257812 "/></g><g clip-rule="nonzero" clip-path="url(#f6a68f7779)"><path style=" stroke:none;fill-rule:nonzero;fill:#000000;fill-opacity:1;" d="M 8.007812 29.085938 L 8.007812 29.730469 L 8.007812 29.628906 L 7.964844 29.722656 C 7.976562 29.726562 7.996094 29.730469 8.007812 29.730469 L 8.007812 29.628906 L 7.964844 29.722656 L 7.992188 29.667969 L 7.953125 29.710938 L 7.964844 29.722656 L 7.992188 29.667969 L 7.953125 29.710938 L 7.964844 29.699219 L 7.949219 29.710938 L 7.953125 29.710938 L 7.964844 29.699219 L 7.949219 29.710938 L 7.953125 29.710938 C 7.953125 29.71875 7.960938 29.726562 7.960938 29.746094 C 7.960938 29.757812 7.957031 29.769531 7.953125 29.773438 L 7.949219 29.78125 L 7.988281 29.816406 L 7.96875 29.769531 C 7.957031 29.777344 7.949219 29.78125 7.949219 29.78125 L 7.988281 29.816406 L 7.96875 29.769531 L 8.007812 29.863281 L 8.007812 29.761719 C 7.996094 29.761719 7.976562 29.765625 7.96875 29.769531 L 8.007812 29.863281 L 8.007812 29.761719 L 5.234375 29.761719 L 5.234375 29.863281 L 5.277344 29.773438 C 5.269531 29.765625 5.25 29.761719 5.234375 29.761719 L 5.234375 29.863281 L 5.277344 29.773438 L 5.253906 29.824219 L 5.292969 29.78125 L 5.277344 29.773438 L 5.253906 29.824219 L 5.292969 29.78125 L 5.28125 29.792969 L 5.292969 29.78125 L 5.28125 29.792969 L 5.292969 29.78125 C 5.289062 29.777344 5.285156 29.765625 5.285156 29.746094 C 5.285156 29.734375 5.289062 29.726562 5.289062 29.71875 L 5.292969 29.710938 L 5.257812 29.675781 L 5.277344 29.722656 C 5.289062 29.714844 5.292969 29.710938 5.292969 29.710938 L 5.257812 29.675781 L 5.277344 29.722656 L 5.234375 29.628906 L 5.234375 29.730469 C 5.25 29.730469 5.265625 29.726562 5.277344 29.722656 L 5.234375 29.628906 L 5.234375 29.730469 L 8.007812 29.730469 L 8.007812 28.441406 L 5.234375 28.441406 C 5.054688 28.441406 4.882812 28.484375 4.730469 28.554688 C 4.5 28.664062 4.316406 28.835938 4.191406 29.042969 C 4.066406 29.25 3.996094 29.492188 3.996094 29.746094 C 3.996094 30.085938 4.121094 30.402344 4.335938 30.644531 C 4.445312 30.765625 4.578125 30.867188 4.730469 30.9375 C 4.882812 31.011719 5.058594 31.050781 5.234375 31.050781 L 8.007812 31.050781 C 8.1875 31.050781 8.363281 31.011719 8.515625 30.9375 C 8.746094 30.828125 8.925781 30.65625 9.050781 30.449219 C 9.179688 30.242188 9.246094 30 9.246094 29.746094 C 9.246094 29.40625 9.125 29.089844 8.910156 28.847656 C 8.800781 28.726562 8.667969 28.625 8.515625 28.554688 C 8.363281 28.484375 8.1875 28.441406 8.007812 28.441406 L 8.007812 29.085938 "/></g><g clip-rule="nonzero" clip-path="url(#faa0755a92)"><path style=" stroke:none;fill-rule:nonzero;fill:#000000;fill-opacity:1;" d="M 8.007812 23.21875 L 8.007812 23.859375 L 8.007812 23.761719 L 7.964844 23.851562 C 7.976562 23.855469 7.996094 23.859375 8.007812 23.859375 L 8.007812 23.761719 L 7.964844 23.851562 L 7.992188 23.800781 L 7.953125 23.84375 L 7.964844 23.851562 L 7.992188 23.800781 L 7.953125 23.84375 L 7.964844 23.828125 L 7.949219 23.839844 L 7.953125 23.84375 L 7.964844 23.828125 L 7.949219 23.839844 L 7.953125 23.84375 C 7.953125 23.847656 7.960938 23.859375 7.960938 23.878906 C 7.960938 23.890625 7.957031 23.898438 7.953125 23.90625 L 7.949219 23.914062 L 7.988281 23.945312 L 7.96875 23.902344 C 7.957031 23.90625 7.949219 23.910156 7.949219 23.914062 L 7.988281 23.945312 L 7.96875 23.902344 L 8.007812 23.992188 L 8.007812 23.894531 C 7.996094 23.894531 7.976562 23.898438 7.96875 23.902344 L 8.007812 23.992188 L 8.007812 23.894531 L 5.234375 23.894531 L 5.234375 23.992188 L 5.277344 23.902344 C 5.269531 23.898438 5.25 23.894531 5.234375 23.894531 L 5.234375 23.992188 L 5.277344 23.902344 L 5.253906 23.953125 L 5.292969 23.910156 L 5.277344 23.902344 L 5.253906 23.953125 L 5.292969 23.910156 L 5.28125 23.925781 L 5.292969 23.914062 L 5.292969 23.910156 L 5.28125 23.925781 L 5.292969 23.914062 L 5.292969 23.910156 C 5.289062 23.90625 5.285156 23.894531 5.285156 23.878906 C 5.285156 23.863281 5.289062 23.855469 5.289062 23.847656 L 5.292969 23.839844 L 5.257812 23.808594 L 5.277344 23.851562 C 5.289062 23.847656 5.292969 23.84375 5.292969 23.839844 L 5.257812 23.808594 L 5.277344 23.851562 L 5.234375 23.761719 L 5.234375 23.859375 C 5.25 23.859375 5.265625 23.855469 5.277344 23.851562 L 5.234375 23.761719 L 5.234375 23.859375 L 8.007812 23.859375 L 8.007812 22.574219 L 5.234375 22.574219 C 5.054688 22.570312 4.882812 22.613281 4.730469 22.6875 C 4.5 22.792969 4.316406 22.96875 4.191406 23.171875 C 4.066406 23.378906 3.996094 23.621094 3.996094 23.878906 C 3.996094 24.21875 4.121094 24.535156 4.335938 24.773438 C 4.445312 24.894531 4.578125 24.996094 4.730469 25.070312 C 4.882812 25.140625 5.058594 25.183594 5.234375 25.183594 L 8.007812 25.183594 C 8.1875 25.183594 8.363281 25.140625 8.515625 25.070312 C 8.746094 24.960938 8.925781 24.789062 9.050781 24.582031 C 9.179688 24.375 9.246094 24.132812 9.246094 23.878906 C 9.246094 23.539062 9.125 23.21875 8.910156 22.980469 C 8.800781 22.859375 8.667969 22.757812 8.515625 22.6875 C 8.363281 22.613281 8.1875 22.570312 8.007812 22.574219 L 8.007812 23.21875 "/></g><g clip-rule="nonzero" clip-path="url(#366149a6e2)"><path style=" stroke:none;fill-rule:nonzero;fill:#000000;fill-opacity:1;" d="M 8.007812 17.347656 L 8.007812 17.992188 L 8.007812 17.890625 L 7.964844 17.984375 C 7.976562 17.988281 7.996094 17.992188 8.007812 17.992188 L 8.007812 17.890625 L 7.964844 17.984375 L 7.992188 17.929688 L 7.953125 17.972656 L 7.964844 17.984375 L 7.992188 17.929688 L 7.953125 17.972656 L 7.960938 17.960938 L 7.949219 17.972656 L 7.953125 17.972656 L 7.960938 17.960938 L 7.949219 17.972656 L 7.953125 17.972656 C 7.953125 17.976562 7.960938 17.988281 7.960938 18.007812 C 7.960938 18.019531 7.957031 18.03125 7.953125 18.035156 L 7.949219 18.042969 L 7.988281 18.078125 L 7.96875 18.03125 C 7.957031 18.039062 7.949219 18.042969 7.949219 18.042969 L 7.988281 18.078125 L 7.96875 18.03125 L 8.007812 18.125 L 8.007812 18.023438 C 7.996094 18.023438 7.976562 18.027344 7.96875 18.03125 L 8.007812 18.125 L 8.007812 18.023438 L 5.234375 18.023438 L 5.234375 18.125 L 5.277344 18.03125 C 5.269531 18.027344 5.25 18.023438 5.234375 18.023438 L 5.234375 18.125 L 5.277344 18.03125 L 5.253906 18.085938 L 5.292969 18.042969 L 5.277344 18.03125 L 5.253906 18.085938 L 5.292969 18.042969 L 5.28125 18.054688 L 5.292969 18.042969 L 5.28125 18.054688 L 5.292969 18.042969 C 5.289062 18.039062 5.285156 18.027344 5.285156 18.007812 C 5.285156 17.996094 5.289062 17.984375 5.289062 17.980469 L 5.292969 17.972656 L 5.257812 17.9375 L 5.277344 17.984375 C 5.289062 17.976562 5.292969 17.972656 5.292969 17.972656 L 5.257812 17.9375 L 5.277344 17.984375 L 5.234375 17.890625 L 5.234375 17.992188 C 5.25 17.992188 5.265625 17.988281 5.277344 17.984375 L 5.234375 17.890625 L 5.234375 17.992188 L 8.007812 17.992188 L 8.007812 16.703125 L 5.234375 16.703125 C 5.054688 16.703125 4.882812 16.746094 4.730469 16.816406 C 4.5 16.925781 4.316406 17.097656 4.191406 17.304688 C 4.066406 17.511719 3.996094 17.753906 3.996094 18.007812 C 3.996094 18.347656 4.121094 18.664062 4.335938 18.90625 C 4.445312 19.027344 4.578125 19.128906 4.730469 19.199219 C 4.882812 19.273438 5.058594 19.3125 5.234375 19.3125 L 8.007812 19.3125 C 8.1875 19.3125 8.363281 19.273438 8.515625 19.199219 C 8.746094 19.089844 8.925781 18.917969 9.050781 18.710938 C 9.179688 18.503906 9.246094 18.261719 9.246094 18.007812 C 9.246094 17.667969 9.125 17.351562 8.910156 17.109375 C 8.800781 16.988281 8.667969 16.886719 8.515625 16.816406 C 8.363281 16.746094 8.1875 16.703125 8.007812 16.703125 L 8.007812 17.347656 "/></g><g clip-rule="nonzero" clip-path="url(#134a7dbcf6)"><path style=" stroke:none;fill-rule:nonzero;fill:#000000;fill-opacity:1;" d="M 8.007812 11.476562 L 8.007812 12.121094 L 8.007812 12.023438 L 7.964844 12.113281 C 7.976562 12.117188 7.996094 12.121094 8.007812 12.121094 L 8.007812 12.023438 L 7.964844 12.113281 L 7.992188 12.0625 L 7.953125 12.105469 L 7.964844 12.113281 L 7.992188 12.0625 L 7.953125 12.105469 L 7.964844 12.089844 L 7.949219 12.101562 L 7.953125 12.105469 L 7.964844 12.089844 L 7.949219 12.101562 L 7.953125 12.105469 C 7.953125 12.109375 7.960938 12.121094 7.960938 12.140625 C 7.960938 12.152344 7.957031 12.160156 7.953125 12.167969 L 7.949219 12.175781 L 7.953125 12.175781 L 7.949219 12.175781 L 7.953125 12.175781 L 7.949219 12.175781 L 7.988281 12.207031 L 7.96875 12.164062 C 7.957031 12.167969 7.949219 12.171875 7.949219 12.175781 L 7.988281 12.207031 L 7.96875 12.164062 L 8.007812 12.253906 L 8.007812 12.15625 C 7.996094 12.152344 7.976562 12.160156 7.96875 12.164062 L 8.007812 12.253906 L 8.007812 12.15625 L 5.234375 12.15625 L 5.234375 12.253906 L 5.277344 12.164062 C 5.269531 12.160156 5.25 12.152344 5.234375 12.15625 L 5.234375 12.253906 L 5.277344 12.164062 L 5.253906 12.214844 L 5.292969 12.171875 L 5.277344 12.164062 L 5.253906 12.214844 L 5.292969 12.171875 L 5.28125 12.1875 L 5.292969 12.175781 L 5.292969 12.171875 L 5.28125 12.1875 L 5.292969 12.175781 L 5.292969 12.171875 C 5.289062 12.167969 5.285156 12.15625 5.285156 12.140625 C 5.285156 12.125 5.289062 12.117188 5.289062 12.109375 L 5.292969 12.101562 L 5.257812 12.066406 L 5.277344 12.113281 C 5.289062 12.109375 5.292969 12.105469 5.292969 12.101562 L 5.257812 12.066406 L 5.277344 12.113281 L 5.234375 12.019531 L 5.234375 12.121094 C 5.25 12.121094 5.265625 12.117188 5.277344 12.113281 L 5.234375 12.019531 L 5.234375 12.121094 L 8.007812 12.121094 L 8.007812 10.832031 L 5.234375 10.832031 C 5.054688 10.832031 4.882812 10.875 4.730469 10.945312 C 4.5 11.054688 4.316406 11.230469 4.191406 11.433594 C 4.066406 11.640625 3.996094 11.882812 3.996094 12.140625 C 3.996094 12.476562 4.121094 12.796875 4.335938 13.035156 C 4.445312 13.15625 4.578125 13.257812 4.730469 13.328125 C 4.882812 13.402344 5.058594 13.445312 5.234375 13.441406 L 8.007812 13.441406 C 8.1875 13.445312 8.363281 13.402344 8.515625 13.328125 C 8.746094 13.222656 8.925781 13.046875 9.050781 12.84375 C 9.179688 12.636719 9.246094 12.394531 9.246094 12.140625 C 9.246094 11.800781 9.125 11.480469 8.910156 11.242188 C 8.800781 11.121094 8.667969 11.019531 8.515625 10.945312 C 8.363281 10.875 8.1875 10.832031 8.007812 10.832031 L 8.007812 11.476562 "/></g><g clip-rule="nonzero" clip-path="url(#398ca3f25b)"><path style=" stroke:none;fill-rule:nonzero;fill:#000000;fill-opacity:1;" d="M 8.007812 5.609375 L 8.007812 6.253906 L 8.007812 6.152344 L 7.964844 6.246094 C 7.976562 6.25 7.996094 6.253906 8.007812 6.253906 L 8.007812 6.152344 L 7.964844 6.246094 L 7.992188 6.191406 L 7.953125 6.234375 L 7.964844 6.246094 L 7.992188 6.191406 L 7.953125 6.234375 L 7.960938 6.222656 L 7.949219 6.234375 L 7.953125 6.234375 L 7.960938 6.222656 L 7.949219 6.234375 L 7.953125 6.234375 C 7.953125 6.238281 7.960938 6.25 7.960938 6.269531 C 7.960938 6.28125 7.957031 6.292969 7.953125 6.296875 L 7.949219 6.304688 L 7.988281 6.339844 L 7.96875 6.292969 C 7.957031 6.300781 7.949219 6.304688 7.949219 6.304688 L 7.988281 6.339844 L 7.96875 6.292969 L 8.007812 6.386719 L 8.007812 6.285156 C 7.996094 6.285156 7.976562 6.289062 7.96875 6.292969 L 8.007812 6.386719 L 8.007812 6.285156 L 5.234375 6.285156 L 5.234375 6.386719 L 5.277344 6.292969 C 5.269531 6.289062 5.25 6.285156 5.234375 6.285156 L 5.234375 6.386719 L 5.277344 6.292969 L 5.253906 6.347656 L 5.292969 6.304688 L 5.277344 6.292969 L 5.253906 6.347656 L 5.292969 6.304688 L 5.28125 6.316406 L 5.292969 6.304688 L 5.28125 6.316406 L 5.292969 6.304688 C 5.289062 6.300781 5.285156 6.289062 5.285156 6.269531 C 5.285156 6.257812 5.289062 6.246094 5.289062 6.242188 L 5.292969 6.234375 L 5.257812 6.199219 L 5.277344 6.246094 C 5.289062 6.238281 5.292969 6.234375 5.292969 6.234375 L 5.257812 6.199219 L 5.277344 6.246094 L 5.234375 6.152344 L 5.234375 6.253906 C 5.25 6.253906 5.265625 6.25 5.277344 6.246094 L 5.234375 6.152344 L 5.234375 6.253906 L 8.007812 6.253906 L 8.007812 4.964844 L 5.234375 4.964844 C 5.054688 4.964844 4.882812 5.007812 4.730469 5.078125 C 4.5 5.1875 4.316406 5.359375 4.191406 5.566406 C 4.066406 5.773438 3.996094 6.015625 3.996094 6.269531 C 3.996094 6.609375 4.121094 6.925781 4.335938 7.167969 C 4.445312 7.289062 4.578125 7.390625 4.730469 7.460938 C 4.882812 7.53125 5.058594 7.574219 5.234375 7.574219 L 8.007812 7.574219 C 8.1875 7.574219 8.363281 7.53125 8.515625 7.460938 C 8.746094 7.351562 8.925781 7.179688 9.050781 6.972656 C 9.179688 6.765625 9.246094 6.523438 9.246094 6.269531 C 9.246094 5.929688 9.125 5.613281 8.910156 5.371094 C 8.800781 5.25 8.667969 5.148438 8.515625 5.078125 C 8.363281 5.007812 8.1875 4.964844 8.007812 4.964844 L 8.007812 5.609375 "/></g><path style=" stroke:none;fill-rule:nonzero;fill:#000000;fill-opacity:1;" d="M 28.964844 11.476562 L 28.964844 10.832031 L 13.113281 10.832031 L 13.113281 6.253906 L 28.320312 6.253906 L 28.320312 11.476562 L 28.964844 11.476562 L 28.964844 10.832031 L 28.964844 11.476562 L 29.609375 11.476562 L 29.609375 5.609375 C 29.609375 5.441406 29.542969 5.273438 29.421875 5.152344 C 29.300781 5.035156 29.136719 4.964844 28.964844 4.964844 L 12.46875 4.964844 C 12.296875 4.964844 12.132812 5.035156 12.011719 5.152344 C 11.890625 5.273438 11.824219 5.4375 11.824219 5.609375 L 11.824219 11.476562 C 11.824219 11.648438 11.890625 11.8125 12.011719 11.933594 C 12.132812 12.054688 12.296875 12.121094 12.46875 12.121094 L 28.964844 12.121094 C 29.136719 12.121094 29.300781 12.054688 29.421875 11.933594 C 29.542969 11.8125 29.609375 11.648438 29.609375 11.476562 L 28.964844 11.476562 "/><path style=" stroke:none;fill-rule:nonzero;fill:#7ed957;fill-opacity:1;" d="M 10.953125 33.519531 L 29.769531 33.519531 C 30.742188 33.519531 31.53125 32.730469 31.53125 31.757812 L 31.53125 3.257812 C 31.53125 2.285156 30.742188 1.5 29.769531 1.5 L 10.953125 1.5 L 10.953125 33.519531 "/><path style=" stroke:none;fill-rule:nonzero;fill:#000000;fill-opacity:1;" d="M 10.953125 33.519531 L 10.953125 33.566406 L 29.769531 33.566406 C 30.769531 33.566406 31.578125 32.757812 31.578125 31.757812 L 31.578125 3.257812 C 31.578125 2.261719 30.769531 1.453125 29.769531 1.453125 L 10.953125 1.453125 C 10.9375 1.453125 10.925781 1.457031 10.917969 1.464844 C 10.910156 1.476562 10.90625 1.488281 10.90625 1.5 L 10.90625 33.519531 C 10.90625 33.53125 10.910156 33.542969 10.917969 33.550781 C 10.925781 33.558594 10.9375 33.566406 10.953125 33.566406 L 10.953125 33.519531 L 10.996094 33.519531 L 10.996094 1.542969 L 29.769531 1.542969 C 30.246094 1.542969 30.671875 1.738281 30.984375 2.046875 C 31.292969 2.359375 31.484375 2.785156 31.484375 3.257812 L 31.484375 31.757812 C 31.484375 32.230469 31.292969 32.660156 30.984375 32.972656 C 30.671875 33.28125 30.246094 33.472656 29.769531 33.472656 L 10.953125 33.472656 L 10.953125 33.519531 L 10.996094 33.519531 L 10.953125 33.519531 "/><path style=" stroke:none;fill-rule:nonzero;fill:#5e17eb;fill-opacity:1;" d="M 9.597656 6.269531 C 9.597656 6.949219 9.046875 7.5 8.367188 7.5 C 7.6875 7.5 7.136719 6.949219 7.136719 6.269531 C 7.136719 5.589844 7.6875 5.039062 8.367188 5.039062 C 9.046875 5.039062 9.597656 5.589844 9.597656 6.269531 Z M 9.597656 12.140625 C 9.597656 12.816406 9.046875 13.367188 8.367188 13.367188 C 7.6875 13.367188 7.136719 12.816406 7.136719 12.140625 C 7.136719 11.460938 7.6875 10.910156 8.367188 10.910156 C 9.046875 10.910156 9.597656 11.460938 9.597656 12.140625 Z M 9.597656 18.007812 C 9.597656 18.6875 9.046875 19.238281 8.367188 19.238281 C 7.6875 19.238281 7.136719 18.6875 7.136719 18.007812 C 7.136719 17.328125 7.6875 16.777344 8.367188 16.777344 C 9.046875 16.777344 9.597656 17.328125 9.597656 18.007812 Z M 9.597656 23.878906 C 9.597656 24.558594 9.046875 25.105469 8.367188 25.105469 C 7.6875 25.105469 7.136719 24.558594 7.136719 23.878906 C 7.136719 23.199219 7.6875 22.648438 8.367188 22.648438 C 9.046875 22.648438 9.597656 23.199219 9.597656 23.878906 Z M 9.597656 29.746094 C 9.597656 30.425781 9.046875 30.976562 8.367188 30.976562 C 7.6875 30.976562 7.136719 30.425781 7.136719 29.746094 C 7.136719 29.066406 7.6875 28.515625 8.367188 28.515625 C 9.046875 28.515625 9.597656 29.066406 9.597656 29.746094 Z M 6.621094 3.257812 L 6.621094 31.757812 C 6.621094 32.730469 7.40625 33.519531 8.378906 33.519531 L 10.953125 33.519531 L 10.953125 1.5 L 8.378906 1.5 C 7.40625 1.5 6.621094 2.285156 6.621094 3.257812 "/><path style=" stroke:none;fill-rule:nonzero;fill:#000000;fill-opacity:1;" d="M 9.597656 6.269531 L 9.550781 6.269531 C 9.550781 6.597656 9.417969 6.890625 9.203125 7.105469 C 8.988281 7.320312 8.691406 7.453125 8.367188 7.453125 C 8.039062 7.453125 7.742188 7.320312 7.527344 7.105469 C 7.3125 6.890625 7.183594 6.597656 7.183594 6.269531 C 7.183594 5.941406 7.3125 5.648438 7.527344 5.433594 C 7.742188 5.21875 8.039062 5.085938 8.367188 5.085938 C 8.691406 5.085938 8.988281 5.21875 9.203125 5.433594 C 9.417969 5.648438 9.550781 5.941406 9.550781 6.269531 L 9.640625 6.269531 C 9.640625 5.566406 9.070312 4.992188 8.367188 4.992188 C 7.660156 4.992188 7.089844 5.566406 7.089844 6.269531 C 7.089844 6.972656 7.660156 7.546875 8.367188 7.546875 C 9.070312 7.546875 9.640625 6.972656 9.640625 6.269531 Z M 9.597656 12.140625 L 9.550781 12.140625 C 9.550781 12.464844 9.417969 12.761719 9.203125 12.976562 C 8.988281 13.191406 8.691406 13.324219 8.367188 13.324219 C 8.039062 13.324219 7.742188 13.191406 7.527344 12.976562 C 7.3125 12.761719 7.183594 12.464844 7.183594 12.140625 C 7.183594 11.8125 7.3125 11.515625 7.527344 11.300781 C 7.742188 11.085938 8.039062 10.953125 8.367188 10.953125 C 8.691406 10.953125 8.988281 11.085938 9.203125 11.300781 C 9.417969 11.515625 9.550781 11.8125 9.550781 12.140625 L 9.640625 12.140625 C 9.640625 11.433594 9.070312 10.863281 8.367188 10.863281 C 7.660156 10.863281 7.089844 11.433594 7.089844 12.140625 C 7.089844 12.84375 7.660156 13.414062 8.367188 13.414062 C 9.070312 13.414062 9.640625 12.84375 9.640625 12.140625 Z M 9.597656 18.007812 L 9.550781 18.007812 C 9.550781 18.335938 9.417969 18.628906 9.203125 18.84375 C 8.988281 19.058594 8.691406 19.191406 8.367188 19.191406 C 8.039062 19.191406 7.742188 19.058594 7.527344 18.84375 C 7.3125 18.628906 7.183594 18.335938 7.183594 18.007812 C 7.183594 17.679688 7.3125 17.386719 7.527344 17.171875 C 7.742188 16.957031 8.039062 16.824219 8.367188 16.824219 C 8.691406 16.824219 8.988281 16.957031 9.203125 17.171875 C 9.417969 17.386719 9.550781 17.679688 9.550781 18.007812 L 9.640625 18.007812 C 9.640625 17.304688 9.070312 16.730469 8.367188 16.730469 C 7.660156 16.730469 7.089844 17.304688 7.089844 18.007812 C 7.089844 18.710938 7.660156 19.285156 8.367188 19.285156 C 9.070312 19.285156 9.640625 18.710938 9.640625 18.007812 Z M 9.597656 23.878906 L 9.550781 23.878906 C 9.550781 24.203125 9.417969 24.5 9.203125 24.714844 C 8.988281 24.929688 8.691406 25.0625 8.367188 25.0625 C 8.039062 25.0625 7.742188 24.929688 7.527344 24.714844 C 7.3125 24.5 7.183594 24.203125 7.183594 23.878906 C 7.183594 23.550781 7.3125 23.253906 7.527344 23.039062 C 7.742188 22.824219 8.039062 22.691406 8.367188 22.691406 C 8.691406 22.691406 8.988281 22.824219 9.203125 23.039062 C 9.417969 23.253906 9.550781 23.550781 9.550781 23.878906 L 9.640625 23.878906 C 9.640625 23.171875 9.070312 22.601562 8.367188 22.601562 C 7.660156 22.601562 7.089844 23.171875 7.089844 23.878906 C 7.089844 24.582031 7.660156 25.152344 8.367188 25.152344 C 9.070312 25.152344 9.640625 24.582031 9.640625 23.878906 Z M 9.597656 29.746094 L 9.550781 29.746094 C 9.550781 30.074219 9.417969 30.371094 9.203125 30.582031 C 8.988281 30.796875 8.691406 30.929688 8.367188 30.929688 C 8.039062 30.929688 7.742188 30.796875 7.527344 30.582031 C 7.3125 30.371094 7.183594 30.074219 7.183594 29.746094 C 7.183594 29.417969 7.3125 29.125 7.527344 28.910156 C 7.742188 28.695312 8.039062 28.5625 8.367188 28.5625 C 8.691406 28.5625 8.988281 28.695312 9.203125 28.910156 C 9.417969 29.125 9.550781 29.417969 9.550781 29.746094 L 9.640625 29.746094 C 9.640625 29.042969 9.070312 28.472656 8.367188 28.472656 C 7.660156 28.472656 7.089844 29.042969 7.089844 29.746094 C 7.089844 30.453125 7.660156 31.023438 8.367188 31.023438 C 9.070312 31.023438 9.640625 30.453125 9.640625 29.746094 Z M 6.621094 3.257812 L 6.574219 3.257812 L 6.574219 31.757812 C 6.574219 32.757812 7.382812 33.566406 8.378906 33.566406 L 10.953125 33.566406 C 10.964844 33.566406 10.976562 33.558594 10.984375 33.550781 C 10.992188 33.542969 10.996094 33.53125 10.996094 33.519531 L 10.996094 1.5 C 10.996094 1.488281 10.992188 1.476562 10.984375 1.464844 C 10.976562 1.457031 10.964844 1.453125 10.953125 1.453125 L 8.378906 1.453125 C 7.382812 1.453125 6.574219 2.261719 6.574219 3.257812 L 6.664062 3.257812 C 6.664062 2.785156 6.859375 2.359375 7.167969 2.046875 C 7.480469 1.738281 7.90625 1.542969 8.378906 1.542969 L 10.90625 1.542969 L 10.90625 33.472656 L 8.378906 33.472656 C 7.90625 33.472656 7.480469 33.28125 7.167969 32.972656 C 6.859375 32.660156 6.664062 32.230469 6.664062 31.757812 L 6.664062 3.257812 L 6.621094 3.257812 "/><path style=" stroke:none;fill-rule:nonzero;fill:#ffffff;fill-opacity:1;" d="M 8.007812 29.085938 C 8.335938 29.085938 8.601562 29.382812 8.601562 29.746094 C 8.601562 30.109375 8.335938 30.40625 8.007812 30.40625 L 5.234375 30.40625 C 4.90625 30.40625 4.640625 30.109375 4.640625 29.746094 C 4.640625 29.382812 4.90625 29.085938 5.234375 29.085938 L 8.007812 29.085938 "/><path style=" stroke:none;fill-rule:nonzero;fill:#000000;fill-opacity:1;" d="M 8.007812 29.085938 L 8.007812 29.132812 C 8.160156 29.132812 8.296875 29.199219 8.394531 29.308594 C 8.496094 29.421875 8.558594 29.574219 8.558594 29.746094 C 8.558594 29.917969 8.496094 30.070312 8.394531 30.183594 C 8.296875 30.292969 8.160156 30.359375 8.007812 30.359375 L 5.234375 30.359375 C 5.085938 30.359375 4.949219 30.292969 4.851562 30.183594 C 4.75 30.070312 4.6875 29.917969 4.6875 29.746094 C 4.6875 29.574219 4.75 29.421875 4.851562 29.308594 C 4.949219 29.199219 5.085938 29.132812 5.234375 29.132812 L 8.007812 29.132812 L 8.007812 29.039062 L 5.234375 29.039062 C 5.058594 29.039062 4.894531 29.121094 4.78125 29.25 C 4.667969 29.378906 4.59375 29.554688 4.59375 29.746094 C 4.59375 29.941406 4.667969 30.117188 4.78125 30.246094 C 4.894531 30.371094 5.058594 30.453125 5.234375 30.453125 L 8.007812 30.453125 C 8.1875 30.453125 8.347656 30.371094 8.464844 30.246094 C 8.578125 30.117188 8.648438 29.941406 8.648438 29.746094 C 8.648438 29.554688 8.578125 29.378906 8.464844 29.25 C 8.347656 29.121094 8.1875 29.039062 8.007812 29.039062 L 8.007812 29.085938 "/><path style=" stroke:none;fill-rule:nonzero;fill:#ffffff;fill-opacity:1;" d="M 8.007812 23.21875 C 8.335938 23.21875 8.601562 23.511719 8.601562 23.878906 C 8.601562 24.242188 8.335938 24.539062 8.007812 24.539062 L 5.234375 24.539062 C 4.90625 24.539062 4.640625 24.242188 4.640625 23.878906 C 4.640625 23.511719 4.90625 23.21875 5.234375 23.21875 L 8.007812 23.21875 "/><path style=" stroke:none;fill-rule:nonzero;fill:#000000;fill-opacity:1;" d="M 8.007812 23.21875 L 8.007812 23.261719 C 8.160156 23.261719 8.296875 23.332031 8.394531 23.441406 C 8.496094 23.550781 8.558594 23.707031 8.558594 23.878906 C 8.558594 24.046875 8.496094 24.203125 8.394531 24.3125 C 8.296875 24.425781 8.160156 24.492188 8.007812 24.492188 L 5.234375 24.492188 C 5.085938 24.492188 4.949219 24.425781 4.851562 24.3125 C 4.75 24.203125 4.6875 24.046875 4.6875 23.878906 C 4.6875 23.707031 4.75 23.550781 4.851562 23.441406 C 4.949219 23.332031 5.085938 23.261719 5.234375 23.261719 L 8.007812 23.261719 L 8.007812 23.171875 L 5.234375 23.171875 C 5.058594 23.171875 4.894531 23.25 4.78125 23.378906 C 4.667969 23.507812 4.59375 23.683594 4.59375 23.878906 C 4.59375 24.070312 4.667969 24.246094 4.78125 24.375 C 4.894531 24.503906 5.058594 24.582031 5.234375 24.582031 L 8.007812 24.582031 C 8.1875 24.582031 8.347656 24.503906 8.464844 24.375 C 8.578125 24.246094 8.648438 24.070312 8.648438 23.878906 C 8.648438 23.683594 8.578125 23.507812 8.464844 23.378906 C 8.347656 23.25 8.1875 23.171875 8.007812 23.171875 L 8.007812 23.21875 "/><path style=" stroke:none;fill-rule:nonzero;fill:#ffffff;fill-opacity:1;" d="M 8.007812 17.347656 C 8.335938 17.347656 8.601562 17.644531 8.601562 18.007812 C 8.601562 18.371094 8.335938 18.667969 8.007812 18.667969 L 5.234375 18.667969 C 4.90625 18.667969 4.640625 18.371094 4.640625 18.007812 C 4.640625 17.644531 4.90625 17.347656 5.234375 17.347656 L 8.007812 17.347656 "/><path style=" stroke:none;fill-rule:nonzero;fill:#000000;fill-opacity:1;" d="M 8.007812 17.347656 L 8.007812 17.394531 C 8.160156 17.394531 8.296875 17.460938 8.394531 17.570312 C 8.496094 17.683594 8.558594 17.835938 8.558594 18.007812 C 8.558594 18.179688 8.496094 18.332031 8.394531 18.445312 C 8.296875 18.554688 8.160156 18.621094 8.007812 18.621094 L 5.234375 18.621094 C 5.085938 18.621094 4.949219 18.554688 4.851562 18.445312 C 4.75 18.332031 4.6875 18.179688 4.6875 18.007812 C 4.6875 17.835938 4.75 17.683594 4.851562 17.570312 C 4.949219 17.460938 5.085938 17.394531 5.234375 17.394531 L 8.007812 17.394531 L 8.007812 17.300781 L 5.234375 17.300781 C 5.058594 17.300781 4.894531 17.382812 4.78125 17.511719 C 4.667969 17.636719 4.59375 17.8125 4.59375 18.007812 C 4.59375 18.203125 4.667969 18.378906 4.78125 18.503906 C 4.894531 18.632812 5.058594 18.714844 5.234375 18.714844 L 8.007812 18.714844 C 8.1875 18.714844 8.347656 18.632812 8.464844 18.503906 C 8.578125 18.378906 8.648438 18.203125 8.648438 18.007812 C 8.648438 17.8125 8.578125 17.636719 8.464844 17.511719 C 8.347656 17.382812 8.1875 17.300781 8.007812 17.300781 L 8.007812 17.347656 "/><path style=" stroke:none;fill-rule:nonzero;fill:#ffffff;fill-opacity:1;" d="M 8.007812 11.476562 C 8.335938 11.476562 8.601562 11.773438 8.601562 12.140625 C 8.601562 12.503906 8.335938 12.800781 8.007812 12.800781 L 5.234375 12.800781 C 4.90625 12.800781 4.640625 12.503906 4.640625 12.140625 C 4.640625 11.773438 4.90625 11.476562 5.234375 11.476562 L 8.007812 11.476562 "/><path style=" stroke:none;fill-rule:nonzero;fill:#000000;fill-opacity:1;" d="M 8.007812 11.476562 L 8.007812 11.523438 C 8.160156 11.523438 8.296875 11.589844 8.394531 11.703125 C 8.496094 11.8125 8.558594 11.96875 8.558594 12.140625 C 8.558594 12.308594 8.496094 12.464844 8.394531 12.574219 C 8.296875 12.6875 8.160156 12.753906 8.007812 12.753906 L 5.234375 12.753906 C 5.085938 12.753906 4.949219 12.6875 4.851562 12.574219 C 4.75 12.464844 4.6875 12.308594 4.6875 12.140625 C 4.6875 11.96875 4.75 11.8125 4.851562 11.703125 C 4.949219 11.589844 5.085938 11.523438 5.234375 11.523438 L 8.007812 11.523438 L 8.007812 11.433594 L 5.234375 11.433594 C 5.058594 11.433594 4.894531 11.511719 4.78125 11.640625 C 4.667969 11.769531 4.59375 11.945312 4.59375 12.140625 C 4.59375 12.332031 4.667969 12.507812 4.78125 12.636719 C 4.894531 12.765625 5.058594 12.84375 5.234375 12.84375 L 8.007812 12.84375 C 8.1875 12.84375 8.347656 12.765625 8.464844 12.636719 C 8.578125 12.507812 8.648438 12.332031 8.648438 12.140625 C 8.648438 11.945312 8.578125 11.769531 8.464844 11.640625 C 8.347656 11.511719 8.1875 11.433594 8.007812 11.433594 L 8.007812 11.476562 "/><path style=" stroke:none;fill-rule:nonzero;fill:#ffffff;fill-opacity:1;" d="M 8.007812 5.609375 C 8.335938 5.609375 8.601562 5.90625 8.601562 6.269531 C 8.601562 6.632812 8.335938 6.929688 8.007812 6.929688 L 5.234375 6.929688 C 4.90625 6.929688 4.640625 6.632812 4.640625 6.269531 C 4.640625 5.90625 4.90625 5.609375 5.234375 5.609375 L 8.007812 5.609375 "/><path style=" stroke:none;fill-rule:nonzero;fill:#000000;fill-opacity:1;" d="M 8.007812 5.609375 L 8.007812 5.65625 C 8.160156 5.65625 8.296875 5.722656 8.394531 5.832031 C 8.496094 5.945312 8.558594 6.097656 8.558594 6.269531 C 8.558594 6.441406 8.496094 6.59375 8.394531 6.707031 C 8.296875 6.816406 8.160156 6.882812 8.007812 6.882812 L 5.234375 6.882812 C 5.085938 6.882812 4.949219 6.816406 4.851562 6.707031 C 4.75 6.59375 4.6875 6.441406 4.6875 6.269531 C 4.6875 6.097656 4.75 5.945312 4.851562 5.832031 C 4.949219 5.722656 5.085938 5.65625 5.234375 5.65625 L 8.007812 5.65625 L 8.007812 5.5625 L 5.234375 5.5625 C 5.058594 5.5625 4.894531 5.644531 4.78125 5.773438 C 4.667969 5.898438 4.59375 6.074219 4.59375 6.269531 C 4.59375 6.464844 4.667969 6.640625 4.78125 6.765625 C 4.894531 6.894531 5.058594 6.976562 5.234375 6.976562 L 8.007812 6.976562 C 8.1875 6.976562 8.347656 6.894531 8.464844 6.765625 C 8.578125 6.640625 8.648438 6.464844 8.648438 6.269531 C 8.648438 6.074219 8.578125 5.898438 8.464844 5.773438 C 8.347656 5.644531 8.1875 5.5625 8.007812 5.5625 L 8.007812 5.609375 "/><path style=" stroke:none;fill-rule:nonzero;fill:#ffffff;fill-opacity:1;" d="M 28.964844 11.476562 L 12.46875 11.476562 L 12.46875 5.609375 L 28.964844 5.609375 L 28.964844 11.476562 "/><path style=" stroke:none;fill-rule:nonzero;fill:#000000;fill-opacity:1;" d="M 28.964844 11.476562 L 28.964844 11.433594 L 12.511719 11.433594 L 12.511719 5.65625 L 28.921875 5.65625 L 28.921875 11.476562 L 28.964844 11.476562 L 28.964844 11.433594 L 28.964844 11.476562 L 29.011719 11.476562 L 29.011719 5.609375 C 29.011719 5.597656 29.007812 5.585938 29 5.578125 C 28.992188 5.566406 28.976562 5.5625 28.964844 5.5625 L 12.46875 5.5625 C 12.457031 5.5625 12.445312 5.566406 12.433594 5.578125 C 12.425781 5.585938 12.421875 5.597656 12.421875 5.609375 L 12.421875 11.476562 C 12.421875 11.492188 12.425781 11.503906 12.433594 11.511719 C 12.445312 11.519531 12.457031 11.523438 12.46875 11.523438 L 28.964844 11.523438 C 28.976562 11.523438 28.992188 11.519531 29 11.511719 C 29.007812 11.503906 29.011719 11.492188 29.011719 11.476562 L 28.964844 11.476562 "/><g style="fill:#000000;fill-opacity:1;"><g transform="translate(13.014728, 9.357602)"><path style="stroke:none" d="M 2.140625 -2.09375 L 2.140625 -0.015625 L 1.875 -0.015625 L 1.875 -0.609375 L 1.484375 -0.609375 L 1.484375 -0.1875 L 0.140625 -0.1875 L 0.140625 -2.0625 L 0.40625 -2.0625 L 0.40625 -0.4375 L 1.21875 -0.4375 L 1.21875 -1.609375 L 0.890625 -1.609375 L 0.890625 -0.8125 L 0.625 -0.8125 L 0.625 -1.875 L 1.484375 -1.875 L 1.484375 -0.875 L 1.875 -0.875 L 1.875 -2.09375 L -0.109375 -2.09375 L -0.109375 -2.359375 L 2.453125 -2.359375 L 2.453125 -2.09375 Z M 2.84375 -2.09375 L 2.84375 0.171875 L 2.59375 0.171875 L 2.59375 -2.09375 L 2.1875 -2.09375 L 2.1875 -2.359375 L 3.203125 -2.359375 L 3.203125 -2.09375 Z M 2.84375 -2.09375 "/></g></g><g style="fill:#000000;fill-opacity:1;"><g transform="translate(16.129749, 9.357602)"><path style="stroke:none" d="M 1.546875 -2.09375 L 0.515625 -2.09375 L 0.515625 -1.796875 L 1.140625 -1.796875 L 1.140625 -1.21875 L 1.546875 -1.21875 Z M 1.8125 -2.09375 L 1.8125 0.09375 L 1.546875 0.09375 L 1.546875 -0.953125 L 0.515625 -0.953125 L 0.515625 -0.625 L 1.3125 -0.625 L 1.3125 -0.375 L 0.265625 -0.375 L 0.265625 -1.21875 L 0.890625 -1.21875 L 0.890625 -1.546875 L 0.25 -1.546875 L 0.25 -2.09375 L -0.109375 -2.09375 L -0.109375 -2.359375 L 2.15625 -2.359375 L 2.15625 -2.09375 Z M 1.8125 -2.09375 "/></g></g><g style="fill:#000000;fill-opacity:1;"><g transform="translate(18.176061, 9.357602)"><path style="stroke:none" d="M 0.484375 -2.09375 L 0.484375 0.171875 L 0.234375 0.171875 L 0.234375 -2.09375 L -0.171875 -2.09375 L -0.171875 -2.359375 L 0.84375 -2.359375 L 0.84375 -2.09375 Z M 0.484375 -2.09375 "/></g></g><g style="fill:#000000;fill-opacity:1;"><g transform="translate(18.901381, 9.357602)"><path style="stroke:none" d="M 0.859375 0.359375 L 0.703125 0.359375 L 0.703125 0.453125 L 0.859375 0.453125 Z M 1.3125 -1.453125 L 0.40625 -1.453125 L 0.40625 -0.28125 L 1.3125 -0.28125 Z M 0.484375 0.671875 L 0.484375 0.171875 L 1.0625 0.171875 L 1.0625 0.671875 Z M 1.578125 -2.09375 L 1.578125 -0.015625 L 0.140625 -0.015625 L 0.140625 -1.71875 L 1.3125 -1.71875 L 1.3125 -2.09375 L -0.109375 -2.09375 L -0.109375 -2.359375 L 1.921875 -2.359375 L 1.921875 -2.09375 Z M 1.578125 -2.09375 "/></g></g><g style="fill:#000000;fill-opacity:1;"><g transform="translate(20.716432, 9.357602)"><path style="stroke:none" d=""/></g></g><g style="fill:#000000;fill-opacity:1;"><g transform="translate(21.991874, 9.357602)"><path style="stroke:none" d="M 1.5625 -2.09375 L 1.5625 -0.015625 L 0.0625 -0.015625 L 0.0625 -1.328125 L 0.703125 -1.328125 L 0.703125 -1.6875 L 0.125 -1.6875 L 0.125 -2.484375 L 0.375 -2.484375 L 0.375 -1.953125 L 0.703125 -1.953125 L 0.703125 -2.46875 L 0.96875 -2.46875 L 0.96875 -1.0625 L 0.328125 -1.0625 L 0.328125 -0.265625 L 1.3125 -0.265625 L 1.3125 -2.484375 L 1.5625 -2.484375 L 1.5625 -2.359375 L 1.875 -2.359375 L 1.875 -2.09375 Z M 1.5625 -2.09375 "/></g></g><g style="fill:#000000;fill-opacity:1;"><g transform="translate(23.754367, 9.357602)"><path style="stroke:none" d="M 0.484375 -2.09375 L 0.484375 0.171875 L 0.234375 0.171875 L 0.234375 -2.09375 L -0.171875 -2.09375 L -0.171875 -2.359375 L 0.84375 -2.359375 L 0.84375 -2.09375 Z M 0.484375 -2.09375 "/></g></g><g style="fill:#000000;fill-opacity:1;"><g transform="translate(24.479687, 9.357602)"><path style="stroke:none" d="M 0.15625 -0.015625 L 0.15625 -2.09375 L 0.421875 -2.09375 L 0.421875 -0.28125 L 1.359375 -0.28125 L 1.359375 -1.671875 L 0.984375 -1.671875 L 0.984375 -0.984375 L 0.734375 -0.984375 L 0.734375 -1.9375 L 1.625 -1.9375 L 1.625 -0.015625 Z M -0.125 -2.09375 L -0.125 -2.359375 L 1.921875 -2.359375 L 1.921875 -2.09375 Z M -0.125 -2.09375 "/></g></g><g style="fill:#000000;fill-opacity:1;"><g transform="translate(26.361313, 9.357602)"><path style="stroke:none" d="M 0.484375 -2.09375 L 0.484375 0.171875 L 0.234375 0.171875 L 0.234375 -2.09375 L -0.171875 -2.09375 L -0.171875 -2.359375 L 0.84375 -2.359375 L 0.84375 -2.09375 Z M 0.484375 -2.09375 "/></g></g><g style="fill:#000000;fill-opacity:1;"><g transform="translate(27.088448, 9.357602)"><path style="stroke:none" d=""/></g></g></g></svg>